<?xml version="1.0" encoding="utf-8"?>
<svg xmlns="http://www.w3.org/2000/svg" xmlns:xlink="http://www.w3.org/1999/xlink" width="600" height="400" viewBox="0 0 2400 1600">
<defs>
  <clipPath id="clip830">
    <rect x="0" y="0" width="2400" height="1600"/>
  </clipPath>
</defs>
<path clip-path="url(#clip830)" d="
M0 1600 L2400 1600 L2400 0 L0 0  Z
  " fill="#282828" fill-rule="evenodd" fill-opacity="1"/>
<defs>
  <clipPath id="clip831">
    <rect x="480" y="0" width="1681" height="1600"/>
  </clipPath>
</defs>
<path clip-path="url(#clip830)" d="
M171.552 1423.18 L2352.76 1423.18 L2352.76 123.472 L171.552 123.472  Z
  " fill="#282828" fill-rule="evenodd" fill-opacity="1"/>
<defs>
  <clipPath id="clip832">
    <rect x="171" y="123" width="2182" height="1301"/>
  </clipPath>
</defs>
<polyline clip-path="url(#clip832)" style="stroke:#ebdbb2; stroke-width:2; stroke-opacity:0.1; fill:none" points="
  171.552,1423.18 171.552,123.472 
  "/>
<polyline clip-path="url(#clip832)" style="stroke:#ebdbb2; stroke-width:2; stroke-opacity:0.1; fill:none" points="
  716.853,1423.18 716.853,123.472 
  "/>
<polyline clip-path="url(#clip832)" style="stroke:#ebdbb2; stroke-width:2; stroke-opacity:0.1; fill:none" points="
  1262.15,1423.18 1262.15,123.472 
  "/>
<polyline clip-path="url(#clip832)" style="stroke:#ebdbb2; stroke-width:2; stroke-opacity:0.1; fill:none" points="
  1807.45,1423.18 1807.45,123.472 
  "/>
<polyline clip-path="url(#clip832)" style="stroke:#ebdbb2; stroke-width:2; stroke-opacity:0.1; fill:none" points="
  2352.76,1423.18 2352.76,123.472 
  "/>
<polyline clip-path="url(#clip830)" style="stroke:#ebdbb2; stroke-width:4; stroke-opacity:1; fill:none" points="
  171.552,1423.18 2352.76,1423.18 
  "/>
<polyline clip-path="url(#clip830)" style="stroke:#ebdbb2; stroke-width:4; stroke-opacity:1; fill:none" points="
  171.552,1423.18 171.552,1407.58 
  "/>
<polyline clip-path="url(#clip830)" style="stroke:#ebdbb2; stroke-width:4; stroke-opacity:1; fill:none" points="
  716.853,1423.18 716.853,1407.58 
  "/>
<polyline clip-path="url(#clip830)" style="stroke:#ebdbb2; stroke-width:4; stroke-opacity:1; fill:none" points="
  1262.15,1423.18 1262.15,1407.58 
  "/>
<polyline clip-path="url(#clip830)" style="stroke:#ebdbb2; stroke-width:4; stroke-opacity:1; fill:none" points="
  1807.45,1423.18 1807.45,1407.58 
  "/>
<polyline clip-path="url(#clip830)" style="stroke:#ebdbb2; stroke-width:4; stroke-opacity:1; fill:none" points="
  2352.76,1423.18 2352.76,1407.58 
  "/>
<path clip-path="url(#clip830)" d="M 0 0 M171.552 1452.37 Q167.941 1452.37 166.112 1455.94 Q164.307 1459.48 164.307 1466.61 Q164.307 1473.71 166.112 1477.28 Q167.941 1480.82 171.552 1480.82 Q175.186 1480.82 176.992 1477.28 Q178.82 1473.71 178.82 1466.61 Q178.82 1459.48 176.992 1455.94 Q175.186 1452.37 171.552 1452.37 M171.552 1448.67 Q177.362 1448.67 180.418 1453.27 Q183.496 1457.86 183.496 1466.61 Q183.496 1475.33 180.418 1479.94 Q177.362 1484.52 171.552 1484.52 Q165.742 1484.52 162.663 1479.94 Q159.607 1475.33 159.607 1466.61 Q159.607 1457.86 162.663 1453.27 Q165.742 1448.67 171.552 1448.67 Z" fill="#ebdbb2" fill-rule="evenodd" fill-opacity="1" /><path clip-path="url(#clip830)" d="M 0 0 M707.131 1449.29 L725.487 1449.29 L725.487 1453.23 L711.413 1453.23 L711.413 1461.7 Q712.432 1461.35 713.45 1461.19 Q714.469 1461 715.487 1461 Q721.274 1461 724.654 1464.18 Q728.033 1467.35 728.033 1472.76 Q728.033 1478.34 724.561 1481.44 Q721.089 1484.52 714.77 1484.52 Q712.594 1484.52 710.325 1484.15 Q708.08 1483.78 705.672 1483.04 L705.672 1478.34 Q707.756 1479.48 709.978 1480.03 Q712.2 1480.59 714.677 1480.59 Q718.682 1480.59 721.02 1478.48 Q723.357 1476.38 723.357 1472.76 Q723.357 1469.15 721.02 1467.05 Q718.682 1464.94 714.677 1464.94 Q712.802 1464.94 710.927 1465.36 Q709.075 1465.77 707.131 1466.65 L707.131 1449.29 Z" fill="#ebdbb2" fill-rule="evenodd" fill-opacity="1" /><path clip-path="url(#clip830)" d="M 0 0 M1239.03 1479.92 L1246.67 1479.92 L1246.67 1453.55 L1238.36 1455.22 L1238.36 1450.96 L1246.62 1449.29 L1251.3 1449.29 L1251.3 1479.92 L1258.94 1479.92 L1258.94 1483.85 L1239.03 1483.85 L1239.03 1479.92 Z" fill="#ebdbb2" fill-rule="evenodd" fill-opacity="1" /><path clip-path="url(#clip830)" d="M 0 0 M1274.01 1452.37 Q1270.39 1452.37 1268.57 1455.94 Q1266.76 1459.48 1266.76 1466.61 Q1266.76 1473.71 1268.57 1477.28 Q1270.39 1480.82 1274.01 1480.82 Q1277.64 1480.82 1279.45 1477.28 Q1281.27 1473.71 1281.27 1466.61 Q1281.27 1459.48 1279.45 1455.94 Q1277.64 1452.37 1274.01 1452.37 M1274.01 1448.67 Q1279.82 1448.67 1282.87 1453.27 Q1285.95 1457.86 1285.95 1466.61 Q1285.95 1475.33 1282.87 1479.94 Q1279.82 1484.52 1274.01 1484.52 Q1268.2 1484.52 1265.12 1479.94 Q1262.06 1475.33 1262.06 1466.61 Q1262.06 1457.86 1265.12 1453.27 Q1268.2 1448.67 1274.01 1448.67 Z" fill="#ebdbb2" fill-rule="evenodd" fill-opacity="1" /><path clip-path="url(#clip830)" d="M 0 0 M1784.83 1479.92 L1792.47 1479.92 L1792.47 1453.55 L1784.16 1455.22 L1784.16 1450.96 L1792.42 1449.29 L1797.1 1449.29 L1797.1 1479.92 L1804.74 1479.92 L1804.74 1483.85 L1784.83 1483.85 L1784.83 1479.92 Z" fill="#ebdbb2" fill-rule="evenodd" fill-opacity="1" /><path clip-path="url(#clip830)" d="M 0 0 M1809.85 1449.29 L1828.21 1449.29 L1828.21 1453.23 L1814.13 1453.23 L1814.13 1461.7 Q1815.15 1461.35 1816.17 1461.19 Q1817.19 1461 1818.21 1461 Q1823.99 1461 1827.37 1464.18 Q1830.75 1467.35 1830.75 1472.76 Q1830.75 1478.34 1827.28 1481.44 Q1823.81 1484.52 1817.49 1484.52 Q1815.31 1484.52 1813.05 1484.15 Q1810.8 1483.78 1808.39 1483.04 L1808.39 1478.34 Q1810.48 1479.48 1812.7 1480.03 Q1814.92 1480.59 1817.4 1480.59 Q1821.4 1480.59 1823.74 1478.48 Q1826.08 1476.38 1826.08 1472.76 Q1826.08 1469.15 1823.74 1467.05 Q1821.4 1464.94 1817.4 1464.94 Q1815.52 1464.94 1813.65 1465.36 Q1811.8 1465.77 1809.85 1466.65 L1809.85 1449.29 Z" fill="#ebdbb2" fill-rule="evenodd" fill-opacity="1" /><path clip-path="url(#clip830)" d="M 0 0 M2333.9 1479.92 L2350.22 1479.92 L2350.22 1483.85 L2328.28 1483.85 L2328.28 1479.92 Q2330.94 1477.16 2335.52 1472.53 Q2340.13 1467.88 2341.31 1466.54 Q2343.55 1464.01 2344.43 1462.28 Q2345.34 1460.52 2345.34 1458.83 Q2345.34 1456.07 2343.39 1454.34 Q2341.47 1452.6 2338.37 1452.6 Q2336.17 1452.6 2333.72 1453.37 Q2331.29 1454.13 2328.51 1455.68 L2328.51 1450.96 Q2331.33 1449.82 2333.79 1449.25 Q2336.24 1448.67 2338.28 1448.67 Q2343.65 1448.67 2346.84 1451.35 Q2350.04 1454.04 2350.04 1458.53 Q2350.04 1460.66 2349.23 1462.58 Q2348.44 1464.48 2346.33 1467.07 Q2345.75 1467.74 2342.65 1470.96 Q2339.55 1474.15 2333.9 1479.92 Z" fill="#ebdbb2" fill-rule="evenodd" fill-opacity="1" /><path clip-path="url(#clip830)" d="M 0 0 M2365.29 1452.37 Q2361.68 1452.37 2359.85 1455.94 Q2358.05 1459.48 2358.05 1466.61 Q2358.05 1473.71 2359.85 1477.28 Q2361.68 1480.82 2365.29 1480.82 Q2368.92 1480.82 2370.73 1477.28 Q2372.56 1473.71 2372.56 1466.61 Q2372.56 1459.48 2370.73 1455.94 Q2368.92 1452.37 2365.29 1452.37 M2365.29 1448.67 Q2371.1 1448.67 2374.16 1453.27 Q2377.23 1457.86 2377.23 1466.61 Q2377.23 1475.33 2374.16 1479.94 Q2371.1 1484.52 2365.29 1484.52 Q2359.48 1484.52 2356.4 1479.94 Q2353.35 1475.33 2353.35 1466.61 Q2353.35 1457.86 2356.4 1453.27 Q2359.48 1448.67 2365.29 1448.67 Z" fill="#ebdbb2" fill-rule="evenodd" fill-opacity="1" /><path clip-path="url(#clip830)" d="M 0 0 M1261.21 1522.27 L1261.21 1532.4 L1273.28 1532.4 L1273.28 1536.95 L1261.21 1536.95 L1261.21 1556.3 Q1261.21 1560.66 1262.39 1561.9 Q1263.6 1563.14 1267.26 1563.14 L1273.28 1563.14 L1273.28 1568.04 L1267.26 1568.04 Q1260.48 1568.04 1257.9 1565.53 Q1255.33 1562.98 1255.33 1556.3 L1255.33 1536.95 L1251.03 1536.95 L1251.03 1532.4 L1255.33 1532.4 L1255.33 1522.27 L1261.21 1522.27 Z" fill="#ebdbb2" fill-rule="evenodd" fill-opacity="1" /><polyline clip-path="url(#clip832)" style="stroke:#ebdbb2; stroke-width:2; stroke-opacity:0.1; fill:none" points="
  171.552,1386.4 2352.76,1386.4 
  "/>
<polyline clip-path="url(#clip832)" style="stroke:#ebdbb2; stroke-width:2; stroke-opacity:0.1; fill:none" points="
  171.552,1079.61 2352.76,1079.61 
  "/>
<polyline clip-path="url(#clip832)" style="stroke:#ebdbb2; stroke-width:2; stroke-opacity:0.1; fill:none" points="
  171.552,772.815 2352.76,772.815 
  "/>
<polyline clip-path="url(#clip832)" style="stroke:#ebdbb2; stroke-width:2; stroke-opacity:0.1; fill:none" points="
  171.552,466.025 2352.76,466.025 
  "/>
<polyline clip-path="url(#clip832)" style="stroke:#ebdbb2; stroke-width:2; stroke-opacity:0.1; fill:none" points="
  171.552,159.234 2352.76,159.234 
  "/>
<polyline clip-path="url(#clip830)" style="stroke:#ebdbb2; stroke-width:4; stroke-opacity:1; fill:none" points="
  171.552,1423.18 171.552,123.472 
  "/>
<polyline clip-path="url(#clip830)" style="stroke:#ebdbb2; stroke-width:4; stroke-opacity:1; fill:none" points="
  171.552,1386.4 197.726,1386.4 
  "/>
<polyline clip-path="url(#clip830)" style="stroke:#ebdbb2; stroke-width:4; stroke-opacity:1; fill:none" points="
  171.552,1079.61 197.726,1079.61 
  "/>
<polyline clip-path="url(#clip830)" style="stroke:#ebdbb2; stroke-width:4; stroke-opacity:1; fill:none" points="
  171.552,772.815 197.726,772.815 
  "/>
<polyline clip-path="url(#clip830)" style="stroke:#ebdbb2; stroke-width:4; stroke-opacity:1; fill:none" points="
  171.552,466.025 197.726,466.025 
  "/>
<polyline clip-path="url(#clip830)" style="stroke:#ebdbb2; stroke-width:4; stroke-opacity:1; fill:none" points="
  171.552,159.234 197.726,159.234 
  "/>
<path clip-path="url(#clip830)" d="M 0 0 M86.6401 1372.19 Q83.029 1372.19 81.2003 1375.76 Q79.3948 1379.3 79.3948 1386.43 Q79.3948 1393.54 81.2003 1397.1 Q83.029 1400.64 86.6401 1400.64 Q90.2743 1400.64 92.0799 1397.1 Q93.9086 1393.54 93.9086 1386.43 Q93.9086 1379.3 92.0799 1375.76 Q90.2743 1372.19 86.6401 1372.19 M86.6401 1368.49 Q92.4502 1368.49 95.5058 1373.1 Q98.5845 1377.68 98.5845 1386.43 Q98.5845 1395.16 95.5058 1399.76 Q92.4502 1404.35 86.6401 1404.35 Q80.8299 1404.35 77.7512 1399.76 Q74.6957 1395.16 74.6957 1386.43 Q74.6957 1377.68 77.7512 1373.1 Q80.8299 1368.49 86.6401 1368.49 Z" fill="#ebdbb2" fill-rule="evenodd" fill-opacity="1" /><path clip-path="url(#clip830)" d="M 0 0 M103.654 1397.8 L108.538 1397.8 L108.538 1403.68 L103.654 1403.68 L103.654 1397.8 Z" fill="#ebdbb2" fill-rule="evenodd" fill-opacity="1" /><path clip-path="url(#clip830)" d="M 0 0 M123.607 1372.19 Q119.996 1372.19 118.168 1375.76 Q116.362 1379.3 116.362 1386.43 Q116.362 1393.54 118.168 1397.1 Q119.996 1400.64 123.607 1400.64 Q127.242 1400.64 129.047 1397.1 Q130.876 1393.54 130.876 1386.43 Q130.876 1379.3 129.047 1375.76 Q127.242 1372.19 123.607 1372.19 M123.607 1368.49 Q129.418 1368.49 132.473 1373.1 Q135.552 1377.68 135.552 1386.43 Q135.552 1395.16 132.473 1399.76 Q129.418 1404.35 123.607 1404.35 Q117.797 1404.35 114.719 1399.76 Q111.663 1395.16 111.663 1386.43 Q111.663 1377.68 114.719 1373.1 Q117.797 1368.49 123.607 1368.49 Z" fill="#ebdbb2" fill-rule="evenodd" fill-opacity="1" /><path clip-path="url(#clip830)" d="M 0 0 M83.2605 1092.95 L99.5798 1092.95 L99.5798 1096.89 L77.6355 1096.89 L77.6355 1092.95 Q80.2975 1090.2 84.8808 1085.57 Q89.4873 1080.91 90.6678 1079.57 Q92.9132 1077.05 93.7928 1075.31 Q94.6956 1073.55 94.6956 1071.86 Q94.6956 1069.11 92.7512 1067.37 Q90.8299 1065.64 87.728 1065.64 Q85.529 1065.64 83.0753 1066.4 Q80.6447 1067.16 77.867 1068.71 L77.867 1063.99 Q80.691 1062.86 83.1447 1062.28 Q85.5984 1061.7 87.6354 1061.7 Q93.0058 1061.7 96.2002 1064.39 Q99.3946 1067.07 99.3946 1071.56 Q99.3946 1073.69 98.5845 1075.61 Q97.7974 1077.51 95.691 1080.1 Q95.1123 1080.77 92.0104 1083.99 Q88.9086 1087.19 83.2605 1092.95 Z" fill="#ebdbb2" fill-rule="evenodd" fill-opacity="1" /><path clip-path="url(#clip830)" d="M 0 0 M104.649 1091.01 L109.533 1091.01 L109.533 1096.89 L104.649 1096.89 L104.649 1091.01 Z" fill="#ebdbb2" fill-rule="evenodd" fill-opacity="1" /><path clip-path="url(#clip830)" d="M 0 0 M114.649 1062.33 L133.006 1062.33 L133.006 1066.26 L118.932 1066.26 L118.932 1074.73 Q119.95 1074.39 120.969 1074.22 Q121.987 1074.04 123.006 1074.04 Q128.793 1074.04 132.172 1077.21 Q135.552 1080.38 135.552 1085.8 Q135.552 1091.38 132.08 1094.48 Q128.607 1097.56 122.288 1097.56 Q120.112 1097.56 117.844 1097.19 Q115.598 1096.82 113.191 1096.08 L113.191 1091.38 Q115.274 1092.51 117.496 1093.07 Q119.719 1093.62 122.195 1093.62 Q126.2 1093.62 128.538 1091.51 Q130.876 1089.41 130.876 1085.8 Q130.876 1082.19 128.538 1080.08 Q126.2 1077.97 122.195 1077.97 Q120.32 1077.97 118.445 1078.39 Q116.594 1078.81 114.649 1079.69 L114.649 1062.33 Z" fill="#ebdbb2" fill-rule="evenodd" fill-opacity="1" /><path clip-path="url(#clip830)" d="M 0 0 M77.6818 755.535 L96.0382 755.535 L96.0382 759.47 L81.9642 759.47 L81.9642 767.942 Q82.9827 767.595 84.0012 767.433 Q85.0197 767.248 86.0382 767.248 Q91.8252 767.248 95.2049 770.419 Q98.5845 773.59 98.5845 779.007 Q98.5845 784.586 95.1123 787.688 Q91.6401 790.766 85.3206 790.766 Q83.1447 790.766 80.8762 790.396 Q78.6309 790.026 76.2235 789.285 L76.2235 784.586 Q78.3068 785.72 80.529 786.276 Q82.7512 786.831 85.2281 786.831 Q89.2327 786.831 91.5706 784.725 Q93.9086 782.618 93.9086 779.007 Q93.9086 775.396 91.5706 773.29 Q89.2327 771.183 85.2281 771.183 Q83.3531 771.183 81.4781 771.6 Q79.6262 772.016 77.6818 772.896 L77.6818 755.535 Z" fill="#ebdbb2" fill-rule="evenodd" fill-opacity="1" /><path clip-path="url(#clip830)" d="M 0 0 M103.654 784.215 L108.538 784.215 L108.538 790.095 L103.654 790.095 L103.654 784.215 Z" fill="#ebdbb2" fill-rule="evenodd" fill-opacity="1" /><path clip-path="url(#clip830)" d="M 0 0 M123.607 758.614 Q119.996 758.614 118.168 762.178 Q116.362 765.72 116.362 772.85 Q116.362 779.956 118.168 783.521 Q119.996 787.063 123.607 787.063 Q127.242 787.063 129.047 783.521 Q130.876 779.956 130.876 772.85 Q130.876 765.72 129.047 762.178 Q127.242 758.614 123.607 758.614 M123.607 754.91 Q129.418 754.91 132.473 759.516 Q135.552 764.1 135.552 772.85 Q135.552 781.577 132.473 786.183 Q129.418 790.766 123.607 790.766 Q117.797 790.766 114.719 786.183 Q111.663 781.577 111.663 772.85 Q111.663 764.1 114.719 759.516 Q117.797 754.91 123.607 754.91 Z" fill="#ebdbb2" fill-rule="evenodd" fill-opacity="1" /><path clip-path="url(#clip830)" d="M 0 0 M77.3577 448.745 L99.5798 448.745 L99.5798 450.735 L87.0336 483.305 L82.1494 483.305 L93.9549 452.68 L77.3577 452.68 L77.3577 448.745 Z" fill="#ebdbb2" fill-rule="evenodd" fill-opacity="1" /><path clip-path="url(#clip830)" d="M 0 0 M104.649 477.425 L109.533 477.425 L109.533 483.305 L104.649 483.305 L104.649 477.425 Z" fill="#ebdbb2" fill-rule="evenodd" fill-opacity="1" /><path clip-path="url(#clip830)" d="M 0 0 M114.649 448.745 L133.006 448.745 L133.006 452.68 L118.932 452.68 L118.932 461.152 Q119.95 460.805 120.969 460.643 Q121.987 460.458 123.006 460.458 Q128.793 460.458 132.172 463.629 Q135.552 466.8 135.552 472.217 Q135.552 477.795 132.08 480.897 Q128.607 483.976 122.288 483.976 Q120.112 483.976 117.844 483.606 Q115.598 483.235 113.191 482.494 L113.191 477.795 Q115.274 478.93 117.496 479.485 Q119.719 480.041 122.195 480.041 Q126.2 480.041 128.538 477.934 Q130.876 475.828 130.876 472.217 Q130.876 468.606 128.538 466.499 Q126.2 464.393 122.195 464.393 Q120.32 464.393 118.445 464.809 Q116.594 465.226 114.649 466.106 L114.649 448.745 Z" fill="#ebdbb2" fill-rule="evenodd" fill-opacity="1" /><path clip-path="url(#clip830)" d="M 0 0 M51.6634 172.579 L59.3023 172.579 L59.3023 146.214 L50.9921 147.88 L50.9921 143.621 L59.256 141.954 L63.9319 141.954 L63.9319 172.579 L71.5707 172.579 L71.5707 176.514 L51.6634 176.514 L51.6634 172.579 Z" fill="#ebdbb2" fill-rule="evenodd" fill-opacity="1" /><path clip-path="url(#clip830)" d="M 0 0 M86.6401 145.033 Q83.029 145.033 81.2003 148.598 Q79.3948 152.139 79.3948 159.269 Q79.3948 166.375 81.2003 169.94 Q83.029 173.482 86.6401 173.482 Q90.2743 173.482 92.0799 169.94 Q93.9086 166.375 93.9086 159.269 Q93.9086 152.139 92.0799 148.598 Q90.2743 145.033 86.6401 145.033 M86.6401 141.329 Q92.4502 141.329 95.5058 145.936 Q98.5845 150.519 98.5845 159.269 Q98.5845 167.996 95.5058 172.602 Q92.4502 177.186 86.6401 177.186 Q80.8299 177.186 77.7512 172.602 Q74.6957 167.996 74.6957 159.269 Q74.6957 150.519 77.7512 145.936 Q80.8299 141.329 86.6401 141.329 Z" fill="#ebdbb2" fill-rule="evenodd" fill-opacity="1" /><path clip-path="url(#clip830)" d="M 0 0 M103.654 170.635 L108.538 170.635 L108.538 176.514 L103.654 176.514 L103.654 170.635 Z" fill="#ebdbb2" fill-rule="evenodd" fill-opacity="1" /><path clip-path="url(#clip830)" d="M 0 0 M123.607 145.033 Q119.996 145.033 118.168 148.598 Q116.362 152.139 116.362 159.269 Q116.362 166.375 118.168 169.94 Q119.996 173.482 123.607 173.482 Q127.242 173.482 129.047 169.94 Q130.876 166.375 130.876 159.269 Q130.876 152.139 129.047 148.598 Q127.242 145.033 123.607 145.033 M123.607 141.329 Q129.418 141.329 132.473 145.936 Q135.552 150.519 135.552 159.269 Q135.552 167.996 132.473 172.602 Q129.418 177.186 123.607 177.186 Q117.797 177.186 114.719 172.602 Q111.663 167.996 111.663 159.269 Q111.663 150.519 114.719 145.936 Q117.797 141.329 123.607 141.329 Z" fill="#ebdbb2" fill-rule="evenodd" fill-opacity="1" /><path clip-path="url(#clip830)" d="M 0 0 M1140.24 72.576 L1117.15 12.096 L1125.7 12.096 L1144.86 63.0159 L1164.06 12.096 L1172.57 12.096 L1149.52 72.576 L1140.24 72.576 Z" fill="#ebdbb2" fill-rule="evenodd" fill-opacity="1" /><path clip-path="url(#clip830)" d="M 0 0 M1212.75 48.0275 L1212.75 51.6733 L1178.48 51.6733 Q1178.97 59.3701 1183.1 63.421 Q1187.27 67.4314 1194.69 67.4314 Q1198.98 67.4314 1202.99 66.3781 Q1207.04 65.3249 1211.01 63.2184 L1211.01 70.267 Q1207 71.9684 1202.79 72.8596 Q1198.57 73.7508 1194.24 73.7508 Q1183.38 73.7508 1177.02 67.4314 Q1170.7 61.1119 1170.7 50.3365 Q1170.7 39.1965 1176.7 32.6746 Q1182.74 26.1121 1192.94 26.1121 Q1202.1 26.1121 1207.41 32.0264 Q1212.75 37.9003 1212.75 48.0275 M1205.3 45.84 Q1205.22 39.7232 1201.86 36.0774 Q1198.53 32.4315 1193.03 32.4315 Q1186.79 32.4315 1183.02 35.9558 Q1179.29 39.4801 1178.73 45.8805 L1205.3 45.84 Z" fill="#ebdbb2" fill-rule="evenodd" fill-opacity="1" /><path clip-path="url(#clip830)" d="M 0 0 M1220.57 9.54393 L1228.03 9.54393 L1228.03 72.576 L1220.57 72.576 L1220.57 9.54393 Z" fill="#ebdbb2" fill-rule="evenodd" fill-opacity="1" /><path clip-path="url(#clip830)" d="M 0 0 M1253.42 32.4315 Q1247.43 32.4315 1243.95 37.1306 Q1240.46 41.7891 1240.46 49.9314 Q1240.46 58.0738 1243.9 62.7728 Q1247.39 67.4314 1253.42 67.4314 Q1259.38 67.4314 1262.86 62.7323 Q1266.35 58.0333 1266.35 49.9314 Q1266.35 41.8701 1262.86 37.1711 Q1259.38 32.4315 1253.42 32.4315 M1253.42 26.1121 Q1263.15 26.1121 1268.7 32.4315 Q1274.25 38.7509 1274.25 49.9314 Q1274.25 61.0714 1268.7 67.4314 Q1263.15 73.7508 1253.42 73.7508 Q1243.66 73.7508 1238.11 67.4314 Q1232.6 61.0714 1232.6 49.9314 Q1232.6 38.7509 1238.11 32.4315 Q1243.66 26.1121 1253.42 26.1121 Z" fill="#ebdbb2" fill-rule="evenodd" fill-opacity="1" /><path clip-path="url(#clip830)" d="M 0 0 M1314.71 28.9478 L1314.71 35.9153 Q1311.55 34.1734 1308.35 33.3227 Q1305.19 32.4315 1301.95 32.4315 Q1294.7 32.4315 1290.69 37.0496 Q1286.68 41.6271 1286.68 49.9314 Q1286.68 58.2358 1290.69 62.8538 Q1294.7 67.4314 1301.95 67.4314 Q1305.19 67.4314 1308.35 66.5807 Q1311.55 65.6895 1314.71 63.9476 L1314.71 70.8341 Q1311.6 72.2924 1308.23 73.0216 Q1304.91 73.7508 1301.14 73.7508 Q1290.9 73.7508 1284.86 67.3098 Q1278.82 60.8689 1278.82 49.9314 Q1278.82 38.832 1284.9 32.472 Q1291.02 26.1121 1301.63 26.1121 Q1305.07 26.1121 1308.35 26.8413 Q1311.64 27.5299 1314.71 28.9478 Z" fill="#ebdbb2" fill-rule="evenodd" fill-opacity="1" /><path clip-path="url(#clip830)" d="M 0 0 M1322.53 27.2059 L1329.99 27.2059 L1329.99 72.576 L1322.53 72.576 L1322.53 27.2059 M1322.53 9.54393 L1329.99 9.54393 L1329.99 18.9825 L1322.53 18.9825 L1322.53 9.54393 Z" fill="#ebdbb2" fill-rule="evenodd" fill-opacity="1" /><path clip-path="url(#clip830)" d="M 0 0 M1345.18 14.324 L1345.18 27.2059 L1360.53 27.2059 L1360.53 32.9987 L1345.18 32.9987 L1345.18 57.6282 Q1345.18 63.1779 1346.68 64.7578 Q1348.22 66.3376 1352.87 66.3376 L1360.53 66.3376 L1360.53 72.576 L1352.87 72.576 Q1344.25 72.576 1340.96 69.3758 Q1337.68 66.1351 1337.68 57.6282 L1337.68 32.9987 L1332.21 32.9987 L1332.21 27.2059 L1337.68 27.2059 L1337.68 14.324 L1345.18 14.324 Z" fill="#ebdbb2" fill-rule="evenodd" fill-opacity="1" /><path clip-path="url(#clip830)" d="M 0 0 M1387.23 76.7889 Q1384.07 84.8907 1381.07 87.3618 Q1378.07 89.8329 1373.05 89.8329 L1367.09 89.8329 L1367.09 83.5945 L1371.47 83.5945 Q1374.55 83.5945 1376.25 82.1361 Q1377.95 80.6778 1380.01 75.2496 L1381.35 71.8468 L1363 27.2059 L1370.9 27.2059 L1385.08 62.6918 L1399.26 27.2059 L1407.16 27.2059 L1387.23 76.7889 Z" fill="#ebdbb2" fill-rule="evenodd" fill-opacity="1" /><polyline clip-path="url(#clip832)" style="stroke:#83a598; stroke-width:4; stroke-opacity:1; fill:none" points="
  171.552,1386.4 173.735,1386.4 175.919,1386.4 178.102,1386.4 180.285,1386.4 182.469,1386.4 184.652,1386.4 186.836,1386.4 189.019,1386.4 191.202,1386.4 
  193.386,1386.4 195.569,1386.4 197.753,1386.4 199.936,1386.4 202.119,1386.4 204.303,1386.4 206.486,1386.4 208.669,1386.4 210.853,1386.4 213.036,1386.4 
  215.22,1386.4 217.403,1386.4 219.586,1386.4 221.77,1386.4 223.953,1386.4 226.137,1386.4 228.32,1386.4 230.503,1386.4 232.687,1386.4 234.87,1386.4 
  237.053,1386.4 239.237,1386.4 241.42,1386.4 243.604,1386.4 245.787,1386.4 247.97,1386.4 250.154,1386.4 252.337,1386.4 254.521,1386.4 256.704,1386.4 
  258.887,1386.4 261.071,1386.4 263.254,1386.4 265.438,1386.4 267.621,1386.4 269.804,1386.4 271.988,1386.4 274.171,1386.4 276.354,1386.4 278.538,1386.4 
  280.721,1385.42 282.905,1365.93 285.088,1346.73 287.271,1327.81 289.455,1309.18 291.638,1290.83 293.822,1272.76 296.005,1254.96 298.188,1237.42 300.372,1220.16 
  302.555,1203.15 304.738,1186.41 306.922,1169.92 309.105,1153.68 311.289,1137.69 313.472,1121.94 315.655,1106.44 317.839,1091.17 320.022,1076.14 322.206,1061.34 
  324.389,1046.77 326.572,1032.42 328.756,1018.3 330.939,1004.39 333.123,990.706 335.306,977.231 337.489,963.965 339.673,950.907 341.856,938.052 344.039,925.399 
  346.223,912.944 348.406,900.684 350.59,888.617 352.773,876.74 354.956,865.049 357.14,853.543 359.323,842.219 361.507,831.073 363.69,820.104 365.873,809.309 
  368.057,798.684 370.24,788.229 372.424,777.939 374.607,767.814 376.79,757.849 378.974,748.043 381.157,738.394 383.34,728.899 385.524,719.556 387.707,710.362 
  389.891,701.316 392.074,692.415 394.257,683.656 396.441,675.039 398.624,666.559 400.808,658.217 402.991,650.009 405.174,641.933 407.358,633.987 409.541,626.169 
  411.724,618.478 413.908,610.912 416.091,603.467 418.275,596.143 420.458,588.938 422.641,581.85 424.825,574.876 427.008,568.016 429.192,561.268 431.375,554.629 
  433.558,548.099 435.742,541.674 437.925,535.355 440.109,529.139 442.292,523.024 444.475,517.009 446.659,511.092 448.842,505.272 451.025,499.547 453.209,493.916 
  455.392,488.377 457.576,482.929 459.759,477.571 461.942,472.3 464.126,467.115 466.309,462.016 468.493,457 470.676,452.066 472.859,447.214 475.043,442.442 
  477.226,437.747 479.409,433.131 481.593,428.59 483.776,424.124 485.96,419.732 488.143,415.412 490.326,411.164 492.51,406.986 494.693,402.877 496.877,398.836 
  499.06,394.862 501.243,390.953 503.427,387.11 505.61,383.33 507.794,379.612 509.977,375.956 512.16,372.361 514.344,368.825 516.527,365.348 518.71,361.929 
  520.894,358.566 523.077,355.259 525.261,352.007 527.444,348.809 529.627,345.664 531.811,342.571 533.994,339.53 536.178,336.538 538.361,333.597 540.544,330.704 
  542.728,327.859 544.911,325.062 547.094,322.311 549.278,319.606 551.461,316.947 553.645,314.331 555.828,311.759 558.011,309.23 560.195,306.744 562.378,304.299 
  564.562,301.894 566.745,299.53 568.928,297.206 571.112,294.92 573.295,292.673 575.479,290.463 577.662,288.29 579.845,286.154 582.029,284.053 584.212,281.987 
  586.395,279.956 588.579,277.959 590.762,275.995 592.946,274.065 595.129,272.166 597.312,270.299 599.496,268.464 601.679,266.659 603.863,264.884 606.046,263.139 
  608.229,261.423 610.413,259.735 612.596,258.076 614.78,256.445 616.963,254.84 619.146,253.262 621.33,251.711 623.513,250.186 625.696,248.686 627.88,247.211 
  630.063,245.761 632.247,244.336 634.43,242.934 636.613,241.556 638.797,240.201 640.98,238.869 643.164,237.559 645.347,236.271 647.53,235.005 649.714,233.761 
  651.897,232.537 654.08,231.334 656.264,230.151 658.447,228.988 660.631,227.845 662.814,226.721 664.997,225.616 667.181,224.53 669.364,223.462 671.548,222.412 
  673.731,221.379 675.914,220.364 678.098,219.366 680.281,218.385 682.465,217.42 684.648,216.472 686.831,215.539 689.015,214.622 691.198,213.721 693.381,212.834 
  695.565,211.963 697.748,211.106 699.932,210.263 702.115,209.434 704.298,208.62 706.482,207.818 708.665,207.03 710.849,206.255 713.032,205.493 715.215,204.744 
  717.399,204.008 719.582,203.283 721.765,202.571 723.949,201.871 726.132,201.182 728.316,200.505 730.499,199.84 732.682,199.186 734.866,198.542 737.049,197.91 
  739.233,197.288 741.416,196.677 743.599,196.076 745.783,195.486 747.966,194.905 750.15,194.334 752.333,193.773 754.516,193.222 756.7,192.68 758.883,192.147 
  761.066,191.623 763.25,191.108 765.433,190.601 767.617,190.104 769.8,189.614 771.983,189.133 774.167,188.661 776.35,188.196 778.534,187.739 780.717,187.289 
  782.9,186.848 785.084,186.414 787.267,185.987 789.451,185.567 791.634,185.154 793.817,184.749 796.001,184.35 798.184,183.957 800.367,183.572 802.551,183.192 
  804.734,182.819 806.918,182.453 809.101,182.092 811.284,181.737 813.468,181.388 815.651,181.045 817.835,180.708 820.018,180.376 822.201,180.049 824.385,179.728 
  826.568,179.412 828.751,179.102 830.935,178.796 833.118,178.496 835.302,178.201 837.485,177.91 839.668,177.625 841.852,177.344 844.035,177.068 846.219,176.797 
  848.402,176.53 850.585,176.268 852.769,176.01 854.952,175.757 857.136,175.507 859.319,175.263 861.502,175.022 863.686,174.785 865.869,174.553 868.052,174.324 
  870.236,174.099 872.419,173.879 874.603,173.661 876.786,173.448 878.969,173.238 881.153,173.032 883.336,172.83 885.52,172.63 887.703,172.435 889.886,172.242 
  892.07,172.053 894.253,171.867 896.436,171.684 898.62,171.505 900.803,171.328 902.987,171.155 905.17,170.984 907.353,170.816 909.537,170.651 911.72,170.489 
  913.904,170.33 916.087,170.173 918.27,170.019 920.454,169.867 922.637,169.718 924.821,169.572 927.004,169.428 929.187,169.286 931.371,169.146 933.554,169.009 
  935.737,168.874 937.921,168.741 940.104,168.611 942.288,168.482 944.471,168.356 946.654,168.231 948.838,168.109 951.021,167.988 953.205,167.869 955.388,167.753 
  957.571,167.638 959.755,167.525 961.938,167.413 964.121,167.304 966.305,167.196 968.488,167.091 970.672,166.987 972.855,166.884 975.038,166.784 977.222,166.685 
  979.405,166.587 981.589,166.491 983.772,166.397 985.955,166.305 988.139,166.214 990.322,166.124 992.506,166.036 994.689,165.95 996.872,165.865 999.056,165.781 
  1001.24,165.699 1003.42,165.619 1005.61,165.539 1007.79,165.461 1009.97,165.385 1012.16,165.309 1014.34,165.235 1016.52,165.163 1018.71,165.091 1020.89,165.021 
  1023.07,164.952 1025.26,164.884 1027.44,164.817 1029.62,164.752 1031.81,164.688 1033.99,164.624 1036.17,164.562 1038.36,164.501 1040.54,164.441 1042.72,164.382 
  1044.91,164.324 1047.09,164.267 1049.27,164.211 1051.46,164.156 1053.64,164.102 1055.82,164.048 1058.01,163.996 1060.19,163.945 1062.37,163.894 1064.56,163.844 
  1066.74,163.795 1068.92,163.747 1071.11,163.7 1073.29,163.653 1075.47,163.607 1077.66,163.562 1079.84,163.518 1082.02,163.474 1084.21,163.431 1086.39,163.389 
  1088.57,163.347 1090.76,163.306 1092.94,163.265 1095.12,163.225 1097.31,163.186 1099.49,163.147 1101.67,163.109 1103.86,163.071 1106.04,163.034 1108.23,162.997 
  1110.41,162.961 1112.59,162.926 1114.78,162.891 1116.96,162.856 1119.14,162.822 1121.33,162.789 1123.51,162.756 1125.69,162.723 1127.88,162.691 1130.06,162.66 
  1132.24,162.629 1134.43,162.599 1136.61,162.569 1138.79,162.539 1140.98,162.51 1143.16,162.482 1145.34,162.453 1147.53,162.426 1149.71,162.399 1151.89,162.372 
  1154.08,162.346 1156.26,162.32 1158.44,162.294 1160.63,162.269 1162.81,162.245 1164.99,162.221 1167.18,162.197 1169.36,162.173 1171.54,162.15 1173.73,162.128 
  1175.91,162.106 1178.09,162.084 1180.28,162.062 1182.46,162.041 1184.64,162.021 1186.83,162 1189.01,161.98 1191.19,161.96 1193.38,161.941 1195.56,161.922 
  1197.74,161.904 1199.93,161.885 1202.11,161.867 1204.29,161.85 1206.48,161.832 1208.66,161.815 1210.84,161.798 1213.03,161.782 1215.21,161.766 1217.39,161.75 
  1219.58,161.734 1221.76,161.719 1223.94,161.703 1226.13,161.689 1228.31,161.674 1230.49,161.66 1232.68,161.645 1234.86,161.632 1237.04,161.618 1239.23,161.604 
  1241.41,161.591 1243.6,161.578 1245.78,161.565 1247.96,161.553 1250.15,161.54 1252.33,161.528 1254.51,161.516 1256.7,161.504 1258.88,161.492 1261.06,161.481 
  1263.25,161.469 1265.43,161.458 1267.61,161.447 1269.8,161.436 1271.98,161.425 1274.16,161.414 1276.35,161.404 1278.53,161.393 1280.71,161.383 1282.9,161.372 
  1285.08,161.362 1287.26,161.352 1289.45,161.342 1291.63,161.332 1293.81,161.322 1296,161.313 1298.18,161.303 1300.36,161.293 1302.55,161.284 1304.73,161.275 
  1306.91,161.266 1309.1,161.257 1311.28,161.248 1313.46,161.239 1315.65,161.23 1317.83,161.221 1320.01,161.213 1322.2,161.204 1324.38,161.196 1326.56,161.188 
  1328.75,161.18 1330.93,161.172 1333.11,161.164 1335.3,161.156 1337.48,161.149 1339.66,161.141 1341.85,161.134 1344.03,161.126 1346.21,161.119 1348.4,161.112 
  1350.58,161.105 1352.76,161.098 1354.95,161.091 1357.13,161.084 1359.31,161.078 1361.5,161.071 1363.68,161.065 1365.86,161.058 1368.05,161.052 1370.23,161.046 
  1372.41,161.04 1374.6,161.034 1376.78,161.028 1378.97,161.022 1381.15,161.016 1383.33,161.011 1385.52,161.005 1387.7,161 1389.88,160.994 1392.07,160.989 
  1394.25,160.984 1396.43,160.979 1398.62,160.974 1400.8,160.969 1402.98,160.964 1405.17,160.959 1407.35,160.955 1409.53,160.95 1411.72,160.946 1413.9,160.941 
  1416.08,160.937 1418.27,160.932 1420.45,160.928 1422.63,160.924 1424.82,160.92 1427,160.916 1429.18,160.912 1431.37,160.908 1433.55,160.904 1435.73,160.9 
  1437.92,160.896 1440.1,160.893 1442.28,160.889 1444.47,160.886 1446.65,160.882 1448.83,160.879 1451.02,160.875 1453.2,160.872 1455.38,160.868 1457.57,160.865 
  1459.75,160.862 1461.93,160.859 1464.12,160.855 1466.3,160.852 1468.48,160.849 1470.67,160.846 1472.85,160.843 1475.03,160.84 1477.22,160.837 1479.4,160.834 
  1481.58,160.831 1483.77,160.828 1485.95,160.826 1488.13,160.823 1490.32,160.82 1492.5,160.817 1494.68,160.814 1496.87,160.811 1499.05,160.809 1501.23,160.806 
  1503.42,160.803 1505.6,160.8 1507.78,160.797 1509.97,160.795 1512.15,160.792 1514.34,160.789 1516.52,160.786 1518.7,160.783 1520.89,160.78 1523.07,160.778 
  1525.25,160.775 1527.44,160.772 1529.62,160.769 1531.8,160.766 1533.99,160.764 1536.17,160.761 1538.35,160.758 1540.54,160.755 1542.72,160.752 1544.9,160.75 
  1547.09,160.747 1549.27,160.744 1551.45,160.742 1553.64,160.739 1555.82,160.736 1558,160.734 1560.19,160.731 1562.37,160.728 1564.55,160.726 1566.74,160.723 
  1568.92,160.721 1571.1,160.718 1573.29,160.716 1575.47,160.713 1577.65,160.711 1579.84,160.708 1582.02,160.706 1584.2,160.703 1586.39,160.701 1588.57,160.698 
  1590.75,160.696 1592.94,160.694 1595.12,160.691 1597.3,160.689 1599.49,160.687 1601.67,160.684 1603.85,160.682 1606.04,160.68 1608.22,160.678 1610.4,160.675 
  1612.59,160.673 1614.77,160.671 1616.95,160.669 1619.14,160.667 1621.32,160.665 1623.5,160.663 1625.69,160.661 1627.87,160.659 1630.05,160.657 1632.24,160.655 
  1634.42,160.653 1636.6,160.651 1638.79,160.649 1640.97,160.647 1643.15,160.645 1645.34,160.643 1647.52,160.641 1649.71,160.639 1651.89,160.638 1654.07,160.636 
  1656.26,160.634 1658.44,160.632 1660.62,160.63 1662.81,160.629 1664.99,160.627 1667.17,160.625 1669.36,160.624 1671.54,160.622 1673.72,160.62 1675.91,160.619 
  1678.09,160.617 1680.27,160.616 1682.46,160.614 1684.64,160.612 1686.82,160.611 1689.01,160.609 1691.19,160.608 1693.37,160.606 1695.56,160.605 1697.74,160.604 
  1699.92,160.602 1702.11,160.601 1704.29,160.599 1706.47,160.598 1708.66,160.596 1710.84,160.595 1713.02,160.594 1715.21,160.592 1717.39,160.591 1719.57,160.59 
  1721.76,160.588 1723.94,160.587 1726.12,160.586 1728.31,160.585 1730.49,160.583 1732.67,160.582 1734.86,160.581 1737.04,160.579 1739.22,160.578 1741.41,160.577 
  1743.59,160.576 1745.77,160.574 1747.96,160.573 1750.14,160.572 1752.32,160.571 1754.51,160.57 1756.69,160.568 1758.87,160.567 1761.06,160.566 1763.24,160.565 
  1765.42,160.563 1767.61,160.562 1769.79,160.561 1771.97,160.56 1774.16,160.558 1776.34,160.557 1778.53,160.556 1780.71,160.555 1782.89,160.554 1785.08,160.552 
  1787.26,160.551 1789.44,160.55 1791.63,160.548 1793.81,160.547 1795.99,160.546 1798.18,160.544 1800.36,160.543 1802.54,160.542 1804.73,160.54 1806.91,160.539 
  1809.09,160.538 1811.28,160.536 1813.46,160.535 1815.64,160.533 1817.83,160.532 1820.01,160.531 1822.19,160.529 1824.38,160.528 1826.56,160.526 1828.74,160.525 
  1830.93,160.523 1833.11,160.522 1835.29,160.52 1837.48,160.519 1839.66,160.517 1841.84,160.516 1844.03,160.514 1846.21,160.513 1848.39,160.512 1850.58,160.51 
  1852.76,160.509 1854.94,160.507 1857.13,160.506 1859.31,160.504 1861.49,160.503 1863.68,160.501 1865.86,160.5 1868.04,160.498 1870.23,160.497 1872.41,160.495 
  1874.59,160.494 1876.78,160.493 1878.96,160.491 1881.14,160.49 1883.33,160.488 1885.51,160.487 1887.69,160.485 1889.88,160.484 1892.06,160.482 1894.24,160.481 
  1896.43,160.48 1898.61,160.478 1900.79,160.477 1902.98,160.475 1905.16,160.474 1907.34,160.473 1909.53,160.471 1911.71,160.47 1913.9,160.468 1916.08,160.467 
  1918.26,160.466 1920.45,160.464 1922.63,160.463 1924.81,160.462 1927,160.46 1929.18,160.459 1931.36,160.458 1933.55,160.456 1935.73,160.455 1937.91,160.454 
  1940.1,160.452 1942.28,160.451 1944.46,160.45 1946.65,160.448 1948.83,160.447 1951.01,160.446 1953.2,160.445 1955.38,160.443 1957.56,160.442 1959.75,160.441 
  1961.93,160.44 1964.11,160.438 1966.3,160.437 1968.48,160.436 1970.66,160.435 1972.85,160.434 1975.03,160.432 1977.21,160.431 1979.4,160.43 1981.58,160.429 
  1983.76,160.428 1985.95,160.426 1988.13,160.425 1990.31,160.424 1992.5,160.423 1994.68,160.422 1996.86,160.421 1999.05,160.42 2001.23,160.418 2003.41,160.417 
  2005.6,160.416 2007.78,160.415 2009.96,160.414 2012.15,160.413 2014.33,160.412 2016.51,160.411 2018.7,160.41 2020.88,160.409 2023.06,160.408 2025.25,160.407 
  2027.43,160.405 2029.61,160.404 2031.8,160.403 2033.98,160.402 2036.16,160.401 2038.35,160.4 2040.53,160.399 2042.71,160.398 2044.9,160.397 2047.08,160.396 
  2049.27,160.395 2051.45,160.394 2053.63,160.393 2055.82,160.392 2058,160.391 2060.18,160.391 2062.37,160.39 2064.55,160.389 2066.73,160.388 2068.92,160.387 
  2071.1,160.386 2073.28,160.385 2075.47,160.384 2077.65,160.383 2079.83,160.382 2082.02,160.381 2084.2,160.38 2086.38,160.379 2088.57,160.378 2090.75,160.377 
  2092.93,160.376 2095.12,160.376 2097.3,160.375 2099.48,160.374 2101.67,160.373 2103.85,160.372 2106.03,160.371 2108.22,160.37 2110.4,160.369 2112.58,160.368 
  2114.77,160.367 2116.95,160.367 2119.13,160.366 2121.32,160.365 2123.5,160.364 2125.68,160.363 2127.87,160.362 2130.05,160.361 2132.23,160.36 2134.42,160.359 
  2136.6,160.358 2138.78,160.357 2140.97,160.357 2143.15,160.356 2145.33,160.355 2147.52,160.354 2149.7,160.353 2151.88,160.352 2154.07,160.351 2156.25,160.35 
  2158.43,160.349 2160.62,160.348 2162.8,160.347 2164.98,160.346 2167.17,160.345 2169.35,160.344 2171.53,160.343 2173.72,160.342 2175.9,160.341 2178.08,160.34 
  2180.27,160.339 2182.45,160.338 2184.64,160.337 2186.82,160.336 2189,160.335 2191.19,160.334 2193.37,160.333 2195.55,160.332 2197.74,160.331 2199.92,160.33 
  2202.1,160.328 2204.29,160.327 2206.47,160.326 2208.65,160.325 2210.84,160.324 2213.02,160.323 2215.2,160.322 2217.39,160.321 2219.57,160.32 2221.75,160.318 
  2223.94,160.317 2226.12,160.316 2228.3,160.315 2230.49,160.314 2232.67,160.313 2234.85,160.312 2237.04,160.311 2239.22,160.31 2241.4,160.309 2243.59,160.308 
  2245.77,160.307 2247.95,160.305 2250.14,160.304 2252.32,160.303 2254.5,160.302 2256.69,160.301 2258.87,160.3 2261.05,160.299 2263.24,160.298 2265.42,160.297 
  2267.6,160.296 2269.79,160.295 2271.97,160.294 2274.15,160.293 2276.34,160.292 2278.52,160.291 2280.7,160.29 2282.89,160.289 2285.07,160.288 2287.25,160.287 
  2289.44,160.286 2291.62,160.285 2293.8,160.283 2295.99,160.282 2298.17,160.281 2300.35,160.28 2302.54,160.279 2304.72,160.278 2306.9,160.277 2309.09,160.276 
  2311.27,160.275 2313.45,160.274 2315.64,160.273 2317.82,160.272 2320.01,160.271 2322.19,160.27 2324.37,160.269 2326.56,160.268 2328.74,160.267 2330.92,160.266 
  2333.11,160.265 2335.29,160.264 2337.47,160.263 2339.66,160.262 2341.84,160.261 2344.02,160.26 2346.21,160.259 2348.39,160.258 2350.57,160.257 2352.76,160.256 
  
  "/>
</svg>
