<?xml version="1.0" encoding="utf-8"?>
<svg xmlns="http://www.w3.org/2000/svg" xmlns:xlink="http://www.w3.org/1999/xlink" width="600" height="400" viewBox="0 0 2400 1600">
<defs>
  <clipPath id="clip270">
    <rect x="0" y="0" width="2400" height="1600"/>
  </clipPath>
</defs>
<path clip-path="url(#clip270)" d="
M0 1600 L2400 1600 L2400 0 L0 0  Z
  " fill="#282828" fill-rule="evenodd" fill-opacity="1"/>
<defs>
  <clipPath id="clip271">
    <rect x="480" y="0" width="1681" height="1600"/>
  </clipPath>
</defs>
<path clip-path="url(#clip270)" d="
M169.469 1486.45 L2352.76 1486.45 L2352.76 47.2441 L169.469 47.2441  Z
  " fill="#282828" fill-rule="evenodd" fill-opacity="1"/>
<defs>
  <clipPath id="clip272">
    <rect x="169" y="47" width="2184" height="1440"/>
  </clipPath>
</defs>
<polyline clip-path="url(#clip272)" style="stroke:#ebdbb2; stroke-width:2; stroke-opacity:0.1; fill:none" points="
  231.26,1486.45 231.26,47.2441 
  "/>
<polyline clip-path="url(#clip272)" style="stroke:#ebdbb2; stroke-width:2; stroke-opacity:0.1; fill:none" points="
  746.186,1486.45 746.186,47.2441 
  "/>
<polyline clip-path="url(#clip272)" style="stroke:#ebdbb2; stroke-width:2; stroke-opacity:0.1; fill:none" points="
  1261.11,1486.45 1261.11,47.2441 
  "/>
<polyline clip-path="url(#clip272)" style="stroke:#ebdbb2; stroke-width:2; stroke-opacity:0.1; fill:none" points="
  1776.04,1486.45 1776.04,47.2441 
  "/>
<polyline clip-path="url(#clip272)" style="stroke:#ebdbb2; stroke-width:2; stroke-opacity:0.1; fill:none" points="
  2290.96,1486.45 2290.96,47.2441 
  "/>
<polyline clip-path="url(#clip270)" style="stroke:#ebdbb2; stroke-width:4; stroke-opacity:1; fill:none" points="
  169.469,1486.45 2352.76,1486.45 
  "/>
<polyline clip-path="url(#clip270)" style="stroke:#ebdbb2; stroke-width:4; stroke-opacity:1; fill:none" points="
  231.26,1486.45 231.26,1469.18 
  "/>
<polyline clip-path="url(#clip270)" style="stroke:#ebdbb2; stroke-width:4; stroke-opacity:1; fill:none" points="
  746.186,1486.45 746.186,1469.18 
  "/>
<polyline clip-path="url(#clip270)" style="stroke:#ebdbb2; stroke-width:4; stroke-opacity:1; fill:none" points="
  1261.11,1486.45 1261.11,1469.18 
  "/>
<polyline clip-path="url(#clip270)" style="stroke:#ebdbb2; stroke-width:4; stroke-opacity:1; fill:none" points="
  1776.04,1486.45 1776.04,1469.18 
  "/>
<polyline clip-path="url(#clip270)" style="stroke:#ebdbb2; stroke-width:4; stroke-opacity:1; fill:none" points="
  2290.96,1486.45 2290.96,1469.18 
  "/>
<path clip-path="url(#clip270)" d="M 0 0 M231.26 1515.64 Q227.649 1515.64 225.82 1519.2 Q224.014 1522.75 224.014 1529.87 Q224.014 1536.98 225.82 1540.55 Q227.649 1544.09 231.26 1544.09 Q234.894 1544.09 236.699 1540.55 Q238.528 1536.98 238.528 1529.87 Q238.528 1522.75 236.699 1519.2 Q234.894 1515.64 231.26 1515.64 M231.26 1511.93 Q237.07 1511.93 240.125 1516.54 Q243.204 1521.12 243.204 1529.87 Q243.204 1538.6 240.125 1543.21 Q237.07 1547.79 231.26 1547.79 Q225.45 1547.79 222.371 1543.21 Q219.315 1538.6 219.315 1529.87 Q219.315 1521.12 222.371 1516.54 Q225.45 1511.93 231.26 1511.93 Z" fill="#ebdbb2" fill-rule="evenodd" fill-opacity="1" /><path clip-path="url(#clip270)" d="M 0 0 M727.83 1543.18 L744.149 1543.18 L744.149 1547.12 L722.205 1547.12 L722.205 1543.18 Q724.867 1540.43 729.45 1535.8 Q734.056 1531.15 735.237 1529.81 Q737.482 1527.28 738.362 1525.55 Q739.265 1523.79 739.265 1522.1 Q739.265 1519.34 737.32 1517.61 Q735.399 1515.87 732.297 1515.87 Q730.098 1515.87 727.644 1516.63 Q725.214 1517.4 722.436 1518.95 L722.436 1514.23 Q725.26 1513.09 727.714 1512.51 Q730.168 1511.93 732.205 1511.93 Q737.575 1511.93 740.769 1514.62 Q743.964 1517.31 743.964 1521.8 Q743.964 1523.93 743.154 1525.85 Q742.367 1527.74 740.26 1530.34 Q739.681 1531.01 736.58 1534.23 Q733.478 1537.42 727.83 1543.18 Z" fill="#ebdbb2" fill-rule="evenodd" fill-opacity="1" /><path clip-path="url(#clip270)" d="M 0 0 M749.265 1512.56 L767.621 1512.56 L767.621 1516.5 L753.547 1516.5 L753.547 1524.97 Q754.566 1524.62 755.584 1524.46 Q756.603 1524.27 757.621 1524.27 Q763.408 1524.27 766.788 1527.44 Q770.167 1530.62 770.167 1536.03 Q770.167 1541.61 766.695 1544.71 Q763.223 1547.79 756.903 1547.79 Q754.728 1547.79 752.459 1547.42 Q750.214 1547.05 747.806 1546.31 L747.806 1541.61 Q749.89 1542.74 752.112 1543.3 Q754.334 1543.86 756.811 1543.86 Q760.816 1543.86 763.153 1541.75 Q765.491 1539.64 765.491 1536.03 Q765.491 1532.42 763.153 1530.31 Q760.816 1528.21 756.811 1528.21 Q754.936 1528.21 753.061 1528.62 Q751.209 1529.04 749.265 1529.92 L749.265 1512.56 Z" fill="#ebdbb2" fill-rule="evenodd" fill-opacity="1" /><path clip-path="url(#clip270)" d="M 0 0 M1237.88 1512.56 L1256.24 1512.56 L1256.24 1516.5 L1242.17 1516.5 L1242.17 1524.97 Q1243.18 1524.62 1244.2 1524.46 Q1245.22 1524.27 1246.24 1524.27 Q1252.03 1524.27 1255.41 1527.44 Q1258.79 1530.62 1258.79 1536.03 Q1258.79 1541.61 1255.31 1544.71 Q1251.84 1547.79 1245.52 1547.79 Q1243.35 1547.79 1241.08 1547.42 Q1238.83 1547.05 1236.42 1546.31 L1236.42 1541.61 Q1238.51 1542.74 1240.73 1543.3 Q1242.95 1543.86 1245.43 1543.86 Q1249.43 1543.86 1251.77 1541.75 Q1254.11 1539.64 1254.11 1536.03 Q1254.11 1532.42 1251.77 1530.31 Q1249.43 1528.21 1245.43 1528.21 Q1243.55 1528.21 1241.68 1528.62 Q1239.83 1529.04 1237.88 1529.92 L1237.88 1512.56 Z" fill="#ebdbb2" fill-rule="evenodd" fill-opacity="1" /><path clip-path="url(#clip270)" d="M 0 0 M1273.86 1515.64 Q1270.24 1515.64 1268.42 1519.2 Q1266.61 1522.75 1266.61 1529.87 Q1266.61 1536.98 1268.42 1540.55 Q1270.24 1544.09 1273.86 1544.09 Q1277.49 1544.09 1279.29 1540.55 Q1281.12 1536.98 1281.12 1529.87 Q1281.12 1522.75 1279.29 1519.2 Q1277.49 1515.64 1273.86 1515.64 M1273.86 1511.93 Q1279.67 1511.93 1282.72 1516.54 Q1285.8 1521.12 1285.8 1529.87 Q1285.8 1538.6 1282.72 1543.21 Q1279.67 1547.79 1273.86 1547.79 Q1268.05 1547.79 1264.97 1543.21 Q1261.91 1538.6 1261.91 1529.87 Q1261.91 1521.12 1264.97 1516.54 Q1268.05 1511.93 1273.86 1511.93 Z" fill="#ebdbb2" fill-rule="evenodd" fill-opacity="1" /><path clip-path="url(#clip270)" d="M 0 0 M1751.92 1512.56 L1774.14 1512.56 L1774.14 1514.55 L1761.59 1547.12 L1756.71 1547.12 L1768.52 1516.5 L1751.92 1516.5 L1751.92 1512.56 Z" fill="#ebdbb2" fill-rule="evenodd" fill-opacity="1" /><path clip-path="url(#clip270)" d="M 0 0 M1779.26 1512.56 L1797.61 1512.56 L1797.61 1516.5 L1783.54 1516.5 L1783.54 1524.97 Q1784.56 1524.62 1785.58 1524.46 Q1786.59 1524.27 1787.61 1524.27 Q1793.4 1524.27 1796.78 1527.44 Q1800.16 1530.62 1800.16 1536.03 Q1800.16 1541.61 1796.69 1544.71 Q1793.21 1547.79 1786.89 1547.79 Q1784.72 1547.79 1782.45 1547.42 Q1780.21 1547.05 1777.8 1546.31 L1777.8 1541.61 Q1779.88 1542.74 1782.1 1543.3 Q1784.33 1543.86 1786.8 1543.86 Q1790.81 1543.86 1793.14 1541.75 Q1795.48 1539.64 1795.48 1536.03 Q1795.48 1532.42 1793.14 1530.31 Q1790.81 1528.21 1786.8 1528.21 Q1784.93 1528.21 1783.05 1528.62 Q1781.2 1529.04 1779.26 1529.92 L1779.26 1512.56 Z" fill="#ebdbb2" fill-rule="evenodd" fill-opacity="1" /><path clip-path="url(#clip270)" d="M 0 0 M2254.33 1543.18 L2261.97 1543.18 L2261.97 1516.82 L2253.66 1518.49 L2253.66 1514.23 L2261.93 1512.56 L2266.6 1512.56 L2266.6 1543.18 L2274.24 1543.18 L2274.24 1547.12 L2254.33 1547.12 L2254.33 1543.18 Z" fill="#ebdbb2" fill-rule="evenodd" fill-opacity="1" /><path clip-path="url(#clip270)" d="M 0 0 M2289.31 1515.64 Q2285.7 1515.64 2283.87 1519.2 Q2282.06 1522.75 2282.06 1529.87 Q2282.06 1536.98 2283.87 1540.55 Q2285.7 1544.09 2289.31 1544.09 Q2292.94 1544.09 2294.75 1540.55 Q2296.58 1536.98 2296.58 1529.87 Q2296.58 1522.75 2294.75 1519.2 Q2292.94 1515.64 2289.31 1515.64 M2289.31 1511.93 Q2295.12 1511.93 2298.18 1516.54 Q2301.25 1521.12 2301.25 1529.87 Q2301.25 1538.6 2298.18 1543.21 Q2295.12 1547.79 2289.31 1547.79 Q2283.5 1547.79 2280.42 1543.21 Q2277.37 1538.6 2277.37 1529.87 Q2277.37 1521.12 2280.42 1516.54 Q2283.5 1511.93 2289.31 1511.93 Z" fill="#ebdbb2" fill-rule="evenodd" fill-opacity="1" /><path clip-path="url(#clip270)" d="M 0 0 M2316.32 1515.64 Q2312.71 1515.64 2310.88 1519.2 Q2309.08 1522.75 2309.08 1529.87 Q2309.08 1536.98 2310.88 1540.55 Q2312.71 1544.09 2316.32 1544.09 Q2319.96 1544.09 2321.76 1540.55 Q2323.59 1536.98 2323.59 1529.87 Q2323.59 1522.75 2321.76 1519.2 Q2319.96 1515.64 2316.32 1515.64 M2316.32 1511.93 Q2322.13 1511.93 2325.19 1516.54 Q2328.27 1521.12 2328.27 1529.87 Q2328.27 1538.6 2325.19 1543.21 Q2322.13 1547.79 2316.32 1547.79 Q2310.51 1547.79 2307.43 1543.21 Q2304.38 1538.6 2304.38 1529.87 Q2304.38 1521.12 2307.43 1516.54 Q2310.51 1511.93 2316.32 1511.93 Z" fill="#ebdbb2" fill-rule="evenodd" fill-opacity="1" /><polyline clip-path="url(#clip272)" style="stroke:#ebdbb2; stroke-width:2; stroke-opacity:0.1; fill:none" points="
  169.469,1320.87 2352.76,1320.87 
  "/>
<polyline clip-path="url(#clip272)" style="stroke:#ebdbb2; stroke-width:2; stroke-opacity:0.1; fill:none" points="
  169.469,1129.68 2352.76,1129.68 
  "/>
<polyline clip-path="url(#clip272)" style="stroke:#ebdbb2; stroke-width:2; stroke-opacity:0.1; fill:none" points="
  169.469,938.477 2352.76,938.477 
  "/>
<polyline clip-path="url(#clip272)" style="stroke:#ebdbb2; stroke-width:2; stroke-opacity:0.1; fill:none" points="
  169.469,747.28 2352.76,747.28 
  "/>
<polyline clip-path="url(#clip272)" style="stroke:#ebdbb2; stroke-width:2; stroke-opacity:0.1; fill:none" points="
  169.469,556.082 2352.76,556.082 
  "/>
<polyline clip-path="url(#clip272)" style="stroke:#ebdbb2; stroke-width:2; stroke-opacity:0.1; fill:none" points="
  169.469,364.884 2352.76,364.884 
  "/>
<polyline clip-path="url(#clip272)" style="stroke:#ebdbb2; stroke-width:2; stroke-opacity:0.1; fill:none" points="
  169.469,173.687 2352.76,173.687 
  "/>
<polyline clip-path="url(#clip270)" style="stroke:#ebdbb2; stroke-width:4; stroke-opacity:1; fill:none" points="
  169.469,1486.45 169.469,47.2441 
  "/>
<polyline clip-path="url(#clip270)" style="stroke:#ebdbb2; stroke-width:4; stroke-opacity:1; fill:none" points="
  169.469,1320.87 195.668,1320.87 
  "/>
<polyline clip-path="url(#clip270)" style="stroke:#ebdbb2; stroke-width:4; stroke-opacity:1; fill:none" points="
  169.469,1129.68 195.668,1129.68 
  "/>
<polyline clip-path="url(#clip270)" style="stroke:#ebdbb2; stroke-width:4; stroke-opacity:1; fill:none" points="
  169.469,938.477 195.668,938.477 
  "/>
<polyline clip-path="url(#clip270)" style="stroke:#ebdbb2; stroke-width:4; stroke-opacity:1; fill:none" points="
  169.469,747.28 195.668,747.28 
  "/>
<polyline clip-path="url(#clip270)" style="stroke:#ebdbb2; stroke-width:4; stroke-opacity:1; fill:none" points="
  169.469,556.082 195.668,556.082 
  "/>
<polyline clip-path="url(#clip270)" style="stroke:#ebdbb2; stroke-width:4; stroke-opacity:1; fill:none" points="
  169.469,364.884 195.668,364.884 
  "/>
<polyline clip-path="url(#clip270)" style="stroke:#ebdbb2; stroke-width:4; stroke-opacity:1; fill:none" points="
  169.469,173.687 195.668,173.687 
  "/>
<path clip-path="url(#clip270)" d="M 0 0 M50.9921 1321.32 L80.6679 1321.32 L80.6679 1325.26 L50.9921 1325.26 L50.9921 1321.32 Z" fill="#ebdbb2" fill-rule="evenodd" fill-opacity="1" /><path clip-path="url(#clip270)" d="M 0 0 M86.5475 1334.22 L94.1863 1334.22 L94.1863 1307.85 L85.8762 1309.52 L85.8762 1305.26 L94.14 1303.59 L98.8159 1303.59 L98.8159 1334.22 L106.455 1334.22 L106.455 1338.15 L86.5475 1338.15 L86.5475 1334.22 Z" fill="#ebdbb2" fill-rule="evenodd" fill-opacity="1" /><path clip-path="url(#clip270)" d="M 0 0 M121.524 1306.67 Q117.913 1306.67 116.084 1310.24 Q114.279 1313.78 114.279 1320.91 Q114.279 1328.01 116.084 1331.58 Q117.913 1335.12 121.524 1335.12 Q125.158 1335.12 126.964 1331.58 Q128.793 1328.01 128.793 1320.91 Q128.793 1313.78 126.964 1310.24 Q125.158 1306.67 121.524 1306.67 M121.524 1302.97 Q127.334 1302.97 130.39 1307.57 Q133.469 1312.16 133.469 1320.91 Q133.469 1329.63 130.39 1334.24 Q127.334 1338.82 121.524 1338.82 Q115.714 1338.82 112.635 1334.24 Q109.58 1329.63 109.58 1320.91 Q109.58 1312.16 112.635 1307.57 Q115.714 1302.97 121.524 1302.97 Z" fill="#ebdbb2" fill-rule="evenodd" fill-opacity="1" /><path clip-path="url(#clip270)" d="M 0 0 M121.524 1115.47 Q117.913 1115.47 116.084 1119.04 Q114.279 1122.58 114.279 1129.71 Q114.279 1136.82 116.084 1140.38 Q117.913 1143.92 121.524 1143.92 Q125.158 1143.92 126.964 1140.38 Q128.793 1136.82 128.793 1129.71 Q128.793 1122.58 126.964 1119.04 Q125.158 1115.47 121.524 1115.47 M121.524 1111.77 Q127.334 1111.77 130.39 1116.38 Q133.469 1120.96 133.469 1129.71 Q133.469 1138.44 130.39 1143.04 Q127.334 1147.63 121.524 1147.63 Q115.714 1147.63 112.635 1143.04 Q109.58 1138.44 109.58 1129.71 Q109.58 1120.96 112.635 1116.38 Q115.714 1111.77 121.524 1111.77 Z" fill="#ebdbb2" fill-rule="evenodd" fill-opacity="1" /><path clip-path="url(#clip270)" d="M 0 0 M86.5475 951.822 L94.1863 951.822 L94.1863 925.457 L85.8762 927.123 L85.8762 922.864 L94.14 921.197 L98.8159 921.197 L98.8159 951.822 L106.455 951.822 L106.455 955.757 L86.5475 955.757 L86.5475 951.822 Z" fill="#ebdbb2" fill-rule="evenodd" fill-opacity="1" /><path clip-path="url(#clip270)" d="M 0 0 M121.524 924.276 Q117.913 924.276 116.084 927.841 Q114.279 931.383 114.279 938.512 Q114.279 945.619 116.084 949.183 Q117.913 952.725 121.524 952.725 Q125.158 952.725 126.964 949.183 Q128.793 945.619 128.793 938.512 Q128.793 931.383 126.964 927.841 Q125.158 924.276 121.524 924.276 M121.524 920.572 Q127.334 920.572 130.39 925.179 Q133.469 929.762 133.469 938.512 Q133.469 947.239 130.39 951.845 Q127.334 956.429 121.524 956.429 Q115.714 956.429 112.635 951.845 Q109.58 947.239 109.58 938.512 Q109.58 929.762 112.635 925.179 Q115.714 920.572 121.524 920.572 Z" fill="#ebdbb2" fill-rule="evenodd" fill-opacity="1" /><path clip-path="url(#clip270)" d="M 0 0 M90.1354 760.625 L106.455 760.625 L106.455 764.56 L84.5105 764.56 L84.5105 760.625 Q87.1725 757.87 91.7558 753.24 Q96.3623 748.588 97.5428 747.245 Q99.7882 744.722 100.668 742.986 Q101.571 741.227 101.571 739.537 Q101.571 736.782 99.6261 735.046 Q97.7048 733.31 94.603 733.31 Q92.4039 733.31 89.9503 734.074 Q87.5197 734.838 84.7419 736.389 L84.7419 731.666 Q87.566 730.532 90.0197 729.953 Q92.4734 729.375 94.5104 729.375 Q99.8808 729.375 103.075 732.06 Q106.27 734.745 106.27 739.236 Q106.27 741.365 105.459 743.287 Q104.672 745.185 102.566 747.777 Q101.987 748.449 98.8854 751.666 Q95.7836 754.861 90.1354 760.625 Z" fill="#ebdbb2" fill-rule="evenodd" fill-opacity="1" /><path clip-path="url(#clip270)" d="M 0 0 M121.524 733.078 Q117.913 733.078 116.084 736.643 Q114.279 740.185 114.279 747.314 Q114.279 754.421 116.084 757.986 Q117.913 761.527 121.524 761.527 Q125.158 761.527 126.964 757.986 Q128.793 754.421 128.793 747.314 Q128.793 740.185 126.964 736.643 Q125.158 733.078 121.524 733.078 M121.524 729.375 Q127.334 729.375 130.39 733.981 Q133.469 738.565 133.469 747.314 Q133.469 756.041 130.39 760.648 Q127.334 765.231 121.524 765.231 Q115.714 765.231 112.635 760.648 Q109.58 756.041 109.58 747.314 Q109.58 738.565 112.635 733.981 Q115.714 729.375 121.524 729.375 Z" fill="#ebdbb2" fill-rule="evenodd" fill-opacity="1" /><path clip-path="url(#clip270)" d="M 0 0 M99.3252 554.728 Q102.682 555.445 104.557 557.714 Q106.455 559.983 106.455 563.316 Q106.455 568.432 102.936 571.232 Q99.4178 574.033 92.9363 574.033 Q90.7604 574.033 88.4456 573.594 Q86.154 573.177 83.7003 572.32 L83.7003 567.807 Q85.6447 568.941 87.9595 569.519 Q90.2743 570.098 92.7975 570.098 Q97.1956 570.098 99.4872 568.362 Q101.802 566.626 101.802 563.316 Q101.802 560.26 99.6493 558.547 Q97.5197 556.811 93.7002 556.811 L89.6725 556.811 L89.6725 552.969 L93.8854 552.969 Q97.3345 552.969 99.1632 551.603 Q100.992 550.214 100.992 547.621 Q100.992 544.959 99.0937 543.547 Q97.2187 542.112 93.7002 542.112 Q91.7789 542.112 89.5799 542.529 Q87.3808 542.946 84.7419 543.825 L84.7419 539.659 Q87.404 538.918 89.7188 538.547 Q92.0567 538.177 94.1169 538.177 Q99.4409 538.177 102.543 540.608 Q105.645 543.015 105.645 547.135 Q105.645 550.006 104.001 551.996 Q102.358 553.964 99.3252 554.728 Z" fill="#ebdbb2" fill-rule="evenodd" fill-opacity="1" /><path clip-path="url(#clip270)" d="M 0 0 M121.524 541.881 Q117.913 541.881 116.084 545.446 Q114.279 548.987 114.279 556.117 Q114.279 563.223 116.084 566.788 Q117.913 570.33 121.524 570.33 Q125.158 570.33 126.964 566.788 Q128.793 563.223 128.793 556.117 Q128.793 548.987 126.964 545.446 Q125.158 541.881 121.524 541.881 M121.524 538.177 Q127.334 538.177 130.39 542.784 Q133.469 547.367 133.469 556.117 Q133.469 564.844 130.39 569.45 Q127.334 574.033 121.524 574.033 Q115.714 574.033 112.635 569.45 Q109.58 564.844 109.58 556.117 Q109.58 547.367 112.635 542.784 Q115.714 538.177 121.524 538.177 Z" fill="#ebdbb2" fill-rule="evenodd" fill-opacity="1" /><path clip-path="url(#clip270)" d="M 0 0 M96.8715 351.678 L85.066 370.127 L96.8715 370.127 L96.8715 351.678 M95.6447 347.604 L101.524 347.604 L101.524 370.127 L106.455 370.127 L106.455 374.016 L101.524 374.016 L101.524 382.164 L96.8715 382.164 L96.8715 374.016 L81.2697 374.016 L81.2697 369.502 L95.6447 347.604 Z" fill="#ebdbb2" fill-rule="evenodd" fill-opacity="1" /><path clip-path="url(#clip270)" d="M 0 0 M121.524 350.683 Q117.913 350.683 116.084 354.248 Q114.279 357.79 114.279 364.919 Q114.279 372.026 116.084 375.59 Q117.913 379.132 121.524 379.132 Q125.158 379.132 126.964 375.59 Q128.793 372.026 128.793 364.919 Q128.793 357.79 126.964 354.248 Q125.158 350.683 121.524 350.683 M121.524 346.979 Q127.334 346.979 130.39 351.586 Q133.469 356.169 133.469 364.919 Q133.469 373.646 130.39 378.252 Q127.334 382.836 121.524 382.836 Q115.714 382.836 112.635 378.252 Q109.58 373.646 109.58 364.919 Q109.58 356.169 112.635 351.586 Q115.714 346.979 121.524 346.979 Z" fill="#ebdbb2" fill-rule="evenodd" fill-opacity="1" /><path clip-path="url(#clip270)" d="M 0 0 M85.5521 156.407 L103.909 156.407 L103.909 160.342 L89.8345 160.342 L89.8345 168.814 Q90.853 168.467 91.8715 168.305 Q92.89 168.12 93.9086 168.12 Q99.6956 168.12 103.075 171.291 Q106.455 174.462 106.455 179.879 Q106.455 185.457 102.983 188.559 Q99.5104 191.638 93.191 191.638 Q91.0151 191.638 88.7466 191.268 Q86.5012 190.897 84.0938 190.156 L84.0938 185.457 Q86.1771 186.592 88.3993 187.147 Q90.6215 187.703 93.0984 187.703 Q97.103 187.703 99.4409 185.596 Q101.779 183.49 101.779 179.879 Q101.779 176.268 99.4409 174.161 Q97.103 172.055 93.0984 172.055 Q91.2234 172.055 89.3484 172.471 Q87.4966 172.888 85.5521 173.768 L85.5521 156.407 Z" fill="#ebdbb2" fill-rule="evenodd" fill-opacity="1" /><path clip-path="url(#clip270)" d="M 0 0 M121.524 159.485 Q117.913 159.485 116.084 163.05 Q114.279 166.592 114.279 173.721 Q114.279 180.828 116.084 184.393 Q117.913 187.934 121.524 187.934 Q125.158 187.934 126.964 184.393 Q128.793 180.828 128.793 173.721 Q128.793 166.592 126.964 163.05 Q125.158 159.485 121.524 159.485 M121.524 155.782 Q127.334 155.782 130.39 160.388 Q133.469 164.971 133.469 173.721 Q133.469 182.448 130.39 187.055 Q127.334 191.638 121.524 191.638 Q115.714 191.638 112.635 187.055 Q109.58 182.448 109.58 173.721 Q109.58 164.971 112.635 160.388 Q115.714 155.782 121.524 155.782 Z" fill="#ebdbb2" fill-rule="evenodd" fill-opacity="1" /><polyline clip-path="url(#clip272)" style="stroke:#83a598; stroke-width:4; stroke-opacity:1; fill:none" points="
  231.26,1148.79 231.26,1148.77 231.268,1148.51 231.327,1146.49 231.446,1142.71 231.609,1138.11 231.83,1132.67 232.122,1126.52 232.5,1119.57 232.983,1111.25 
  233.595,1099.85 234.321,1082.44 235.112,1055.12 235.979,1010.79 236.909,947.172 237.896,901.422 238.926,1020.67 239.913,1309.86 240.811,1445.72 241.66,1407.54 
  242.734,1299.76 243.759,1224.16 245.04,1176.71 246.247,1160.27 247.714,1154.41 249.309,1148.15 251.16,1131.46 253.073,1113.45 255.382,1113.2 257.431,1128.54 
  260.042,1147.05 262.441,1144.76 265.011,1118.84 267.347,1108.95 269.919,1126.16 272.449,1146.39 275.191,1145.85 277.839,1117.27 280.285,1108.05 282.902,1128.15 
  285.557,1149.31 288.268,1144.41 290.944,1112.77 293.382,1108.12 295.916,1130.56 298.712,1152.22 301.312,1142.73 303.966,1109.1 306.367,1108.03 308.835,1132.1 
  311.705,1154.4 314.221,1142.27 316.842,1106.68 319.198,1106.92 321.619,1132.18 324.492,1156 326.959,1144.15 329.563,1105.68 331.861,1104.31 334.251,1130.27 
  337.042,1156.6 339.499,1149.06 342.107,1107.09 344.346,1100.15 346.728,1125.94 349.35,1154.83 351.86,1156.03 354.441,1113.3 356.659,1095.47 359.107,1119.61 
  361.507,1149.71 364.18,1161.92 366.624,1125.58 368.898,1092.84 371.338,1110.53 373.563,1141.08 376.58,1165.42 378.828,1140.15 381.25,1093.29 383.381,1098.38 
  385.608,1129.81 388.296,1162.72 390.601,1161.67 393.123,1107.77 395.189,1086.88 397.482,1113.5 399.772,1147.87 402.433,1171 404.719,1141.43 406.989,1088.12 
  409.054,1091.65 411.164,1124.73 413.644,1160.93 415.926,1173.07 418.333,1124.13 420.377,1080.31 422.633,1098.25 424.663,1133.09 427.412,1171.33 429.536,1171.05 
  431.993,1103.68 433.918,1074.93 436.087,1103.68 438.232,1141.84 441.108,1179.39 443.182,1164.34 445.557,1087.13 447.4,1072.41 449.434,1106.65 451.593,1146.24 
  454.066,1181.48 456.205,1172.19 458.461,1091.15 460.287,1064.94 462.268,1097.79 464.345,1138.83 467.129,1182.96 469.103,1184.75 471.46,1098.14 473.249,1057.34 
  475.277,1089.35 477.288,1132.07 479.778,1175.57 481.754,1197.1 484.045,1135.59 485.904,1056.11 487.741,1064.25 489.526,1106.79 491.482,1145.96 493.509,1181.97 
  495.574,1203.78 497.616,1136.24 499.406,1047.9 501.123,1053.87 502.82,1098.05 504.621,1136.66 506.601,1172.33 508.49,1206.53 510.584,1186.51 512.401,1072.03 
  514.012,1028.61 515.668,1067.07 517.431,1114.22 519.361,1149.77 521.046,1180.42 523.137,1221.44 525.019,1185.32 526.809,1048.17 528.286,1013.63 529.837,1058.52 
  531.446,1105.91 533.324,1139.14 534.811,1161.14 536.712,1200.35 538.758,1242.36 540.467,1162.08 541.943,1016.54 543.313,991.577 544.647,1041.43 545.885,1085.85 
  547.283,1115.1 548.221,1125.82 549.504,1135.31 550.698,1143.41 552.217,1158.7 554.099,1197.39 555.907,1262.82 557.503,1257.39 559.019,1045.84 560.283,928.122 
  561.615,976.534 563.397,1066.89 564.679,1093.73 566.098,1096.27 567.526,1080.76 569.179,1048.12 571.097,1036.05 572.708,1137.62 574.235,1246.34 575.747,1236.51 
  577.192,1185.54 578.559,1149.01 580.153,1123.33 581.571,1104.82 583.283,1074.37 585.296,1020.77 587.018,1032.43 588.678,1201.96 590.053,1285.4 591.509,1241.72 
  593.042,1180.03 594.471,1149.51 595.786,1138.36 596.984,1135.4 598.172,1136.05 599.531,1140.14 601.025,1150.27 602.709,1175.53 604.508,1234.29 606.181,1300.62 
  607.674,1186.33 608.863,961.971 609.993,900.451 611.031,959.657 612.365,1042.42 613.587,1080.71 614.893,1090.16 616.248,1080.27 617.803,1059.46 619.68,1064.56 
  621.348,1146.16 622.908,1216.15 624.646,1202.23 626.197,1160.94 627.946,1123.39 629.812,1089.9 631.651,1055.36 633.706,1060.98 635.5,1169.68 637.111,1233.04 
  638.827,1200.04 640.567,1151.19 642.352,1116.8 644.067,1087.02 646.012,1046.17 648.003,1048.89 649.761,1175.58 651.315,1250.17 652.968,1213.05 654.687,1158.98 
  656.273,1128.44 657.873,1105.84 659.563,1075.89 661.632,1023.88 663.411,1042.9 665.111,1209.72 666.509,1277.36 667.972,1231.24 669.496,1174.05 670.95,1144.69 
  672.174,1133.08 673.412,1126.55 674.732,1120.55 676.236,1110.28 678.187,1081.2 680.019,1020.91 681.76,966.084 683.279,1117.05 684.503,1318.16 685.694,1336.88 
  686.762,1270.24 688.118,1199.38 689.456,1170.05 690.734,1168.23 692.174,1183.92 693.773,1209.42 695.674,1194.49 697.29,1093.71 698.814,1027.35 700.439,1052.14 
  702.02,1098.4 703.667,1133.39 705.383,1162.53 707.142,1197.82 709.199,1225.41 710.934,1141.77 712.586,1021.22 714.059,1021.4 715.569,1072.28 717.021,1111.39 
  718.739,1139.67 720.198,1160.56 722.033,1197.83 724.067,1244.56 725.747,1180.06 727.215,1026.43 728.549,983.641 729.867,1029.77 731.139,1078.94 732.641,1112.37 
  733.794,1124.54 734.969,1131.32 736.232,1136.86 737.631,1144.82 739.379,1164.31 741.22,1210.54 743.028,1284.2 744.579,1237.89 745.852,1018.28 747.018,908.997 
  748.166,954.956 749.53,1038.82 750.78,1080.7 752.105,1092.5 753.45,1083.81 754.983,1060.57 756.796,1046.84 758.486,1116.49 760.049,1214.91 761.612,1225.07 
  763.082,1183.92 764.677,1142.73 766.782,1104.99 768.315,1076.47 770.49,1035.06 772.266,1078.38 774.043,1216.83 775.48,1246.68 777.01,1201.09 778.577,1154.57 
  780.467,1121.18 781.917,1100.31 783.799,1062.75 785.842,1016.08 787.559,1080.76 789.033,1232.61 790.382,1273.73 791.708,1227.23 792.995,1178.44 794.508,1145.56 
  795.634,1133.61 796.904,1125.74 798.186,1118.77 799.705,1106.42 801.642,1072.74 803.483,1007.46 805.159,978.355 806.676,1168.87 808.012,1337.23 809.312,1303.56 
  810.756,1217.77 812.09,1175.22 813.456,1164.83 814.848,1175.08 816.419,1201.23 818.278,1219.27 819.953,1144.6 821.524,1035.3 823.028,1025.74 824.485,1070.14 
  826.005,1111.59 827.983,1146.2 829.441,1170.4 831.475,1215.74 833.361,1227.45 835.09,1102.17 836.614,999.224 838.203,1027.08 839.53,1076.41 840.615,1105.52 
  842.014,1128.13 843.282,1141.94 844.752,1159.32 846.428,1191.74 848.49,1253.28 850.069,1230.59 851.529,1055.72 852.797,957.896 854.129,994.395 855.435,1056.95 
  856.825,1096.41 858.16,1109.8 859.382,1109.18 860.805,1097.41 862.327,1070.15 864.123,1017.07 865.771,1010.34 867.322,1172.38 868.669,1297.72 870.113,1266.47 
  871.497,1200.64 872.909,1161.71 874.277,1148.92 875.523,1150.16 876.976,1162.86 878.528,1191.92 880.361,1247.17 881.993,1243.6 883.556,1067.42 884.878,957.414 
  886.303,996.827 887.791,1065.85 889.189,1100.13 890.526,1110.03 891.825,1106.7 893.295,1090.84 894.908,1055.81 896.789,1002.09 898.355,1050.16 899.926,1242.76 
  901.173,1299.53 902.486,1248.55 903.89,1187.31 905.362,1155.28 906.608,1147.55 907.927,1150.88 909.357,1165.33 910.969,1198.65 912.817,1255.79 914.402,1231.3 
  915.965,1037.31 917.234,952.561 918.567,998.718 920.03,1066.7 921.432,1099.87 922.716,1108.33 924.051,1103.45 925.514,1085.12 927.164,1045.95 929.02,1003.3 
  930.562,1087.22 932.082,1262.35 933.336,1287.87 934.64,1231.98 935.985,1179 937.602,1149.14 938.772,1143.09 940.09,1145.05 941.473,1155.06 943.057,1179.9 
  944.822,1233.23 946.533,1276.23 948.047,1147.56 949.461,955.106 950.665,948.78 951.874,1015.69 953.255,1074.73 954.761,1098.9 955.991,1097.92 957.5,1080.08 
  959.076,1046.58 960.993,1027.83 962.553,1127.03 964.069,1251.2 965.488,1249.82 966.882,1197.57 968.128,1159.78 969.569,1134.25 970.876,1119.78 972.348,1103.5 
  974.007,1074.21 976.16,1010.15 977.775,1017.47 979.421,1208.34 980.739,1304.48 982.148,1258.02 983.825,1184.12 985.211,1156.08 986.507,1149.8 987.884,1156.15 
  989.381,1176.32 991.083,1219.29 992.92,1258.45 994.463,1155.58 995.954,983.896 997.213,971.621 998.507,1031.37 999.864,1083.1 1001.29,1108.12 1002.41,1113.44 
  1003.71,1110.08 1005.07,1097.39 1006.65,1067.17 1008.43,1010.52 1010.03,1004.43 1011.56,1178.21 1012.87,1308.46 1014.29,1274.74 1015.69,1204.22 1017.09,1165.04 
  1018.43,1153.93 1019.75,1158.72 1021.24,1178.45 1022.89,1218.05 1024.74,1246.99 1026.29,1142.19 1027.78,993.245 1029.1,988.496 1030.44,1045.2 1031.73,1089.95 
  1033.28,1116.16 1034.43,1123.76 1035.63,1126.71 1036.68,1127.24 1037.88,1126.51 1039.19,1124.22 1040.7,1118.5 1042.34,1104.42 1044.09,1068.98 1045.89,991.335 
  1047.44,946.555 1048.89,1162.38 1050.16,1376.87 1051.33,1348.64 1052.68,1247.2 1053.93,1191.25 1055.33,1171.89 1056.7,1176.55 1058.31,1188.96 1060.2,1171.58 
  1061.94,1104 1063.6,1062.22 1065.39,1081.37 1067.14,1118.59 1069.18,1155.92 1071.16,1186.29 1073.29,1181.17 1075.29,1098.64 1077.04,1054.64 1078.95,1083.32 
  1080.84,1125.39 1083.04,1165.35 1084.99,1195.39 1087.21,1172.28 1089.14,1075.88 1090.86,1048.16 1092.62,1085.23 1094.51,1128.5 1096.92,1172.25 1098.73,1202.53 
  1100.99,1172.23 1102.83,1065.8 1104.51,1038.86 1106.19,1079.44 1108,1123.49 1110.31,1165.41 1112.01,1198.43 1114.3,1206.19 1116.07,1101.53 1117.76,1022.96 
  1119.48,1054.4 1121.24,1105.3 1122.98,1139.18 1124.69,1167.87 1126.58,1207.93 1128.63,1223.55 1130.36,1109.21 1131.96,1006.52 1133.54,1031.31 1135.12,1086.16 
  1136.5,1118.02 1138.08,1140.57 1139.54,1160.07 1141.35,1196.24 1143.43,1249.91 1145.07,1194.75 1146.52,1030.7 1147.81,972.276 1149.1,1016.27 1150.37,1070.03 
  1151.82,1105.54 1153.07,1118.18 1154.24,1121.65 1155.44,1120.46 1156.8,1114.49 1158.3,1099.93 1159.99,1064.87 1161.8,994.749 1163.36,980.243 1164.85,1191.3 
  1166.11,1345.29 1167.45,1301.95 1168.96,1212.7 1170.27,1174.37 1171.65,1166.82 1173.07,1179.47 1174.69,1205.72 1176.62,1204.52 1178.27,1110.11 1179.82,1029.01 
  1181.49,1046.81 1183.03,1092.74 1184.66,1129.05 1186.4,1158.63 1188.11,1191.74 1190.18,1227.69 1191.93,1163.55 1193.63,1029.3 1195.06,1013.4 1196.56,1062.32 
  1198.04,1105.56 1199.91,1137.5 1201.31,1156.67 1203.17,1191.97 1205.2,1243.4 1206.92,1200.58 1208.41,1041.86 1209.75,978.457 1211.09,1020.72 1212.42,1074.72 
  1213.83,1108.28 1215.08,1121.92 1216.23,1127.61 1217.28,1130.32 1218.5,1132.68 1219.79,1135.82 1221.43,1143.36 1223.2,1162.41 1224.99,1208.22 1226.77,1291.71 
  1228.3,1272.03 1229.55,1033.92 1230.7,883.719 1231.86,928.234 1233.28,1028 1234.48,1073.63 1235.87,1088.2 1237.22,1081.01 1238.83,1065.85 1240.72,1083.39 
  1242.43,1157.7 1244.06,1204.24 1245.8,1184.05 1247.51,1145 1249.45,1107.86 1251.38,1074.93 1253.45,1062.48 1255.43,1136.44 1257.18,1209.26 1259.01,1194.57 
  1260.72,1152.16 1262.63,1113.77 1264.57,1078.94 1266.6,1051.99 1268.61,1108.19 1270.4,1208.89 1272.03,1215.57 1273.69,1172.16 1275.43,1131.62 1277.54,1093.7 
  1279.28,1059.97 1281.48,1051.64 1283.25,1154.54 1284.91,1236.04 1286.62,1207.69 1288.32,1157.39 1290.03,1123.11 1291.74,1094.74 1293.57,1056.83 1295.65,1031.29 
  1297.38,1130.09 1299.01,1248.73 1300.49,1237.99 1302.01,1183.89 1303.37,1148.22 1304.96,1123.45 1306.39,1105.48 1308.1,1075.63 1310.14,1020.52 1311.86,1027.67 
  1313.52,1198.76 1314.9,1288.64 1316.37,1244.7 1317.95,1180.1 1319.38,1150.34 1320.71,1140.23 1321.85,1138.89 1323.22,1142.78 1324.64,1153.41 1326.29,1180.09 
  1328.09,1238.72 1329.76,1288.7 1331.26,1149.86 1332.51,950.967 1333.7,926.811 1334.78,990.951 1336.14,1060.65 1337.48,1090.62 1338.75,1093.29 1340.17,1078.43 
  1341.74,1050.76 1343.65,1049.32 1345.25,1145.15 1346.77,1235.07 1348.38,1221.26 1349.86,1174.35 1351.39,1137.71 1353.11,1109.35 1354.69,1081.81 1356.68,1036.56 
  1358.52,1042.73 1360.23,1182.9 1361.7,1261.84 1363.28,1224.05 1364.91,1167.53 1366.23,1140.03 1367.72,1121.3 1369.15,1105.24 1370.87,1075.8 1373.01,1013.84 
  1374.69,1019.62 1376.34,1205.87 1377.69,1300.61 1379.12,1253.55 1380.85,1180.2 1382.25,1153.62 1383.56,1147.5 1384.92,1152.85 1386.42,1170.84 1388.1,1210.85 
  1389.98,1263.82 1391.53,1191.27 1392.89,1011.34 1394.12,954.027 1395.33,1001.94 1396.65,1063.54 1398.04,1098.68 1399.29,1108.39 1400.58,1105.22 1401.99,1089.72 
  1403.58,1055.45 1405.42,1005.34 1406.98,1052.72 1408.55,1236.85 1409.8,1294.01 1411.12,1245.66 1412.48,1187.28 1413.96,1153.97 1415.22,1144.39 1416.45,1144.67 
  1417.83,1153.12 1419.34,1173.98 1421.07,1220.86 1422.84,1274.49 1424.36,1185.25 1425.66,993.491 1426.86,939.779 1428.01,992.172 1429.35,1059.26 1430.7,1093.78 
  1431.9,1101.61 1433.27,1093.94 1434.71,1071.14 1436.42,1031.3 1438.14,1036.54 1439.73,1170.33 1441.13,1265.86 1442.66,1238.04 1443.86,1190.93 1444.94,1159.53 
  1446.09,1139.11 1447.29,1126.27 1448.57,1115.38 1450,1099.53 1451.79,1063.17 1453.69,1000.41 1455.27,1016.28 1456.83,1219.76 1458.1,1317.05 1459.43,1269.56 
  1461.01,1192.94 1462.37,1162.17 1463.66,1156.04 1465.06,1165.53 1466.58,1191.37 1468.36,1235 1470.06,1219.37 1471.66,1067.56 1473.03,984.405 1474.49,1020.8 
  1475.96,1078.39 1477.25,1109.19 1478.52,1124.63 1479.72,1132.77 1481.05,1140.22 1482.51,1151.84 1484.42,1183.17 1486.27,1246.28 1487.97,1283.01 1489.49,1108.27 
  1490.85,927.301 1492.1,949.764 1493.42,1029.63 1494.78,1079.94 1496.14,1095 1497.49,1088.24 1499.02,1064.75 1500.77,1037.34 1502.51,1084.34 1504.12,1205.72 
  1505.57,1242.74 1507.04,1204.17 1508.59,1157.52 1510.26,1124.84 1511.8,1101.23 1513.55,1067.19 1515.58,1023.09 1517.3,1074.21 1518.99,1230.58 1520.36,1263.95 
  1521.8,1214.67 1523.22,1166.71 1524.8,1136.85 1526.08,1123.38 1527.57,1109.19 1529.16,1086.11 1531.35,1024.78 1533.06,993.781 1534.7,1147.97 1536.12,1305.16 
  1537.46,1283.7 1538.78,1215.21 1540.19,1169.33 1541.61,1154.32 1542.89,1157.27 1544.38,1175.19 1545.99,1211.75 1547.89,1248.72 1549.44,1162.18 1550.97,1001.89 
  1552.26,983.35 1553.6,1037.86 1554.89,1085.28 1556.36,1113.4 1557.46,1122.4 1558.62,1126.3 1559.67,1127.37 1560.74,1127.21 1561.97,1125.87 1563.34,1122.55 
  1564.91,1114.37 1566.58,1094.22 1568.36,1044.07 1570.04,960.142 1571.53,986.387 1572.76,1233.61 1573.88,1385.08 1575.01,1340.31 1576.38,1238.19 1577.56,1189.32 
  1578.94,1171.8 1580.29,1176.65 1581.89,1188.35 1583.75,1170.19 1585.47,1104.33 1587.14,1063.46 1588.92,1081.98 1590.67,1118.68 1592.71,1155.83 1594.69,1185.79 
  1596.82,1179.47 1598.84,1097.87 1600.59,1056.07 1602.49,1084.81 1604.4,1126.56 1606.63,1166.76 1608.59,1195.47 1610.81,1166.22 1612.74,1072.14 1614.47,1051.17 
  1616.22,1089.12 1618.12,1131.4 1620.65,1176.93 1622.46,1204.02 1624.73,1155.87 1626.54,1055.67 1628.24,1045.47 1629.92,1088.38 1631.72,1129.65 1633.89,1168.68 
  1635.67,1202.55 1637.87,1197.3 1639.66,1086.56 1641.32,1025.3 1643.04,1061.7 1644.84,1111.4 1646.68,1145.66 1648.38,1175.7 1650.4,1218.15 1652.35,1202.9 
  1654.12,1066.44 1655.64,1007.93 1657.22,1049.25 1658.9,1101.53 1660.54,1132.02 1662.09,1153.4 1663.8,1183.61 1665.85,1236.11 1667.63,1219.23 1669.32,1051.12 
  1670.72,979.649 1672.18,1025.64 1673.71,1084.01 1675.17,1113.59 1676.42,1124.93 1677.53,1129.91 1678.8,1133.8 1680.13,1138.51 1681.78,1149.33 1683.64,1177.88 
  1685.47,1240.96 1687.17,1303.41 1688.67,1154.59 1689.85,937.209 1691,904.2 1692.03,970.545 1693.37,1049.65 1694.62,1083.54 1695.92,1089.17 1697.31,1076.95 
  1698.91,1057.45 1700.82,1079.02 1702.46,1166.39 1704.04,1217.42 1705.69,1193.31 1707.35,1150.7 1709.15,1114.68 1710.96,1081.83 1712.93,1049.64 1714.89,1085.59 
  1716.69,1198.63 1718.26,1227.27 1719.87,1187.26 1721.59,1142.66 1723.65,1105.18 1725.29,1074.37 1727.46,1036.84 1729.28,1092.79 1731.05,1223.05 1732.51,1239.52 
  1734.07,1191.78 1735.63,1148.55 1737.62,1114.68 1739.08,1091.42 1741.12,1045.9 1743.05,1024.31 1744.77,1144.31 1746.32,1263.92 1747.81,1243.81 1749.05,1194.72 
  1750.16,1161.49 1751.39,1139.31 1752.58,1126.67 1753.88,1115.73 1755.31,1100.25 1757.13,1063.97 1759.03,1000.43 1760.62,1014.71 1762.19,1219.55 1763.46,1318.37 
  1764.79,1270.2 1766.42,1191.67 1767.77,1162.09 1769.08,1156.76 1770.49,1167.4 1772.03,1194.96 1773.84,1237.74 1775.52,1207.43 1777.12,1050.68 1778.48,985.853 
  1779.89,1026.51 1781.33,1081.23 1782.64,1111.43 1783.83,1125.85 1785.11,1135.2 1786.44,1144.2 1788.01,1160.72 1790.05,1206.83 1791.86,1273.17 1793.47,1228.45 
  1794.79,1024.36 1796,926.903 1797.19,972.652 1798.57,1048.88 1799.87,1087.54 1801.16,1097.61 1802.51,1089.4 1804,1065.07 1805.75,1032.09 1807.45,1068.4 
  1809.06,1201.41 1810.46,1253.76 1811.91,1216.94 1813.42,1166.93 1814.87,1136.02 1816.37,1115.16 1817.89,1093.2 1819.72,1052.58 1821.7,1009.79 1823.32,1095.62 
  1824.91,1261.04 1826.2,1275.61 1827.57,1218.29 1828.9,1171.21 1830.35,1145.23 1831.48,1137.04 1832.65,1134.08 1833.69,1133.96 1834.96,1135.99 1836.31,1141.08 
  1837.89,1153.88 1839.58,1184.63 1841.38,1254.08 1842.95,1307.24 1844.42,1136.33 1845.6,919.36 1846.75,903.099 1847.8,976.654 1849.13,1053 1850.42,1084.54 
  1851.72,1087.61 1853.16,1074.31 1854.81,1059.97 1856.7,1098.88 1858.32,1180.35 1859.97,1210.09 1861.56,1180.37 1863.31,1139.03 1865.29,1101.94 1867.11,1069.66 
  1869.23,1059.01 1871.11,1141.83 1872.83,1217.64 1874.61,1199.03 1876.3,1154.33 1878.14,1116.89 1880,1083.27 1881.97,1048.51 1883.98,1079.66 1885.8,1198.29 
  1887.36,1231.47 1888.98,1190.56 1890.7,1144.76 1892.7,1108.42 1894.33,1078.85 1896.46,1036.06 1898.31,1071.54 1900.1,1212.51 1901.56,1248.74 1903.1,1203.42 
  1904.7,1155.43 1906.53,1122.95 1907.99,1102.37 1909.83,1067.22 1911.89,1016.76 1913.62,1064.97 1915.11,1220.92 1916.45,1277.76 1917.79,1234.55 1919.12,1182.02 
  1920.54,1149.21 1921.75,1135.72 1922.84,1129.31 1924.11,1124.14 1925.43,1117.88 1927.09,1103.63 1928.96,1066.94 1930.79,995.281 1932.4,976.453 1933.9,1195.13 
  1935.18,1351.85 1936.52,1303.26 1937.99,1214.22 1939.32,1175.2 1940.7,1168.19 1942.13,1181.33 1943.77,1205.85 1945.72,1192.96 1947.37,1096.05 1948.93,1031.85 
  1950.6,1056.76 1952.22,1102.25 1953.93,1137.73 1955.68,1168.35 1957.53,1205.54 1959.56,1212.5 1961.32,1103.43 1962.91,1017.48 1964.59,1044.93 1966.23,1096.15 
  1967.83,1129.77 1969.5,1155.53 1971.19,1187.21 1973.26,1234.06 1975.03,1194.42 1976.75,1036.12 1978.14,994.622 1979.6,1042.65 1981.07,1092.75 1982.48,1120.26 
  1983.82,1135.21 1985.25,1148.78 1986.84,1170.9 1988.93,1226.69 1990.7,1267.43 1992.31,1138.21 1993.78,962.116 1995.05,966.078 1996.33,1032.78 1997.73,1084.33 
  1999.24,1104.73 2000.46,1104.05 2001.96,1088.81 2003.51,1056.68 2005.41,1010.61 2006.98,1065.23 2008.57,1238.11 2009.85,1282.97 2011.2,1233.96 2012.51,1181.74 
  2014.06,1148.46 2015.27,1138.12 2016.48,1134.58 2017.56,1134.45 2018.87,1136.83 2020.25,1142.81 2021.87,1158.02 2023.59,1194.57 2025.39,1270.65 2026.94,1294.45 
  2028.41,1068.71 2029.66,894.884 2030.95,939.478 2032.41,1036.17 2033.69,1079 2035.09,1089.02 2036.51,1078.21 2038.16,1059.62 2040.11,1083.62 2041.79,1169.42 
  2043.4,1213.9 2045.06,1187.59 2046.78,1145.3 2048.67,1108.88 2050.5,1075.71 2052.55,1051.47 2054.48,1113.77 2056.23,1211.76 2057.86,1215.11 2059.49,1171.5 
  2061.21,1131.57 2063.27,1094.75 2065,1061.02 2067.18,1048.43 2068.95,1147.37 2070.61,1235.92 2072.28,1212.72 2073.93,1162.55 2075.57,1127.7 2077.3,1099.55 
  2079.04,1065 2081.14,1027.56 2082.88,1099.26 2084.57,1238.57 2085.97,1250.02 2087.46,1198.26 2088.87,1156.24 2090.55,1127.65 2091.93,1111.05 2093.61,1085.69 
  2095.52,1037.13 2097.39,1007.3 2099.01,1136.44 2100.5,1283.73 2101.86,1270.1 2103.22,1207.23 2104.6,1164.31 2106.06,1145.42 2107.21,1142.02 2108.56,1145.73 
  2109.97,1157.61 2111.6,1186.72 2113.4,1246.62 2115.05,1273.18 2116.56,1105.29 2117.91,939.859 2119.2,960.657 2120.47,1033.16 2121.86,1083.02 2123.25,1098.79 
  2124.56,1093.72 2126.07,1071.57 2127.75,1035.64 2129.56,1046.75 2131.15,1175.3 2132.59,1257.98 2134.13,1227.58 2135.65,1174.1 2136.93,1143.94 2138.44,1122.76 
  2139.84,1106.12 2141.52,1077.87 2143.56,1021.27 2145.27,1016.98 2146.91,1184.05 2148.3,1293.14 2149.8,1252.52 2151.44,1182.57 2152.84,1153 2154.21,1143.77 
  2155.45,1145 2156.91,1155.12 2158.47,1179.15 2160.27,1232.79 2161.99,1274.6 2163.52,1143.26 2164.94,955.077 2166.16,952.383 2167.38,1019.53 2168.76,1076.84 
  2170.28,1099.92 2171.5,1098.6 2173.02,1080.58 2174.6,1046.52 2176.51,1024.87 2178.07,1123.02 2179.59,1252.73 2180.98,1254.03 2182.36,1201.26 2183.57,1163.22 
  2184.9,1138.45 2186.17,1124.43 2187.55,1111.55 2189.08,1091.22 2191.08,1040.87 2192.86,991.032 2194.46,1086.67 2195.79,1267.5 2197.04,1307.86 2198.22,1253.33 
  2199.57,1191.45 2201,1159.75 2202.15,1153.57 2203.54,1160.6 2204.96,1181.33 2206.65,1223.62 2208.42,1245.7 2209.97,1130.12 2211.41,989.312 2212.77,991.267 
  2214.09,1048.43 2215.4,1092.09 2216.89,1116.24 2218.05,1123.44 2219.24,1125.84 2220.31,1125.75 2221.62,1123.62 2223.01,1118.38 2224.63,1105.07 2226.34,1072.73 
  2228.15,1000.12 2229.72,951.183 2231.19,1141.09 2232.49,1361.98 2233.64,1347.28 2234.89,1255.69 2236.19,1193.93 2237.6,1171.56 2238.93,1175.5 2240.51,1191.62 
  2242.33,1189.09 2244.11,1120.58 2245.71,1057.98 2247.56,1067.17 2249.15,1104.25 2251.05,1142.74 2253.04,1177.89 2255.02,1201.78 2257.07,1149.65 2258.87,1058.02 
  2260.56,1050.75 2262.23,1091.46 2264.04,1131.88 2266.24,1171.76 2268.05,1203.58 2270.24,1182.1 2272.05,1072.65 2273.7,1033.12 2275.37,1071.56 2277.16,1117.69 
  2279.19,1154.84 2280.9,1187.15 2283.08,1220.52 2284.91,1153.95 2286.67,1032.7 2288.16,1026.37 2289.74,1075.17 2290.96,1108.58 
  "/>
<polyline clip-path="url(#clip272)" style="stroke:#fb4934; stroke-width:4; stroke-opacity:1; fill:none" points="
  231.26,1148.79 231.26,1148.77 231.268,1148.51 231.327,1146.49 231.446,1142.69 231.609,1138.05 231.83,1132.51 232.122,1126.17 232.5,1118.87 232.983,1109.84 
  233.595,1096.79 234.321,1075.23 235.112,1037.22 235.979,963.141 236.909,815.983 237.896,556.688 238.926,306.681 239.913,386.148 240.811,598.716 241.66,693.745 
  242.734,699.036 243.759,680.742 245.04,670.884 246.247,670.712 247.714,665.488 249.309,640.473 251.16,593.405 253.073,563.654 255.382,587.643 257.431,634.24 
  260.042,665.196 262.441,631.548 265.011,568.028 267.347,570.719 269.919,629.716 272.449,668.143 275.191,633.037 277.839,563.687 280.285,571.357 282.902,636.516 
  285.557,672.44 288.268,625.181 290.944,555.455 293.382,576.139 295.916,644.295 298.712,675.418 301.312,617.236 303.966,548.978 306.367,579.359 308.835,649.99 
  311.705,678.333 314.221,613.294 316.842,543.753 319.198,578.579 321.619,652.39 324.492,683.19 326.959,616.135 329.563,539.265 331.861,572.202 334.251,650.174 
  337.042,690.257 339.499,628.471 342.107,536.977 344.346,559.29 346.728,641.732 349.35,696.159 351.86,650.356 354.441,542.306 356.659,541.058 359.107,627.195 
  361.507,695.128 364.18,674.083 366.624,561.967 368.898,523.886 371.338,603.43 373.563,683.256 376.58,693.483 378.828,592.46 381.25,513.418 383.381,567.263 
  385.608,660.524 388.296,716.285 390.601,655.999 393.123,523.112 395.189,522.285 397.482,619.27 399.772,704.668 402.433,707.434 404.719,587.789 406.989,497.56 
  409.054,553.337 411.164,654.64 413.644,729.359 415.926,696.387 418.333,544.258 420.377,490.754 422.633,580.912 424.663,680.698 427.412,741.972 429.536,671.495 
  431.993,502.788 433.918,493.498 436.087,602.706 438.232,707.185 441.108,746.1 443.182,636.957 445.557,474.429 447.4,499.991 449.434,616.961 451.593,723.775 
  454.066,762.535 456.205,654.961 458.461,471.786 460.287,477.472 462.268,596.25 464.345,713.172 467.129,778.95 469.103,694.336 471.46,474.132 473.249,452.242 
  475.277,577.194 477.288,702.99 479.778,792.065 481.754,760.232 484.045,537.038 485.904,420.083 487.741,505.698 489.526,637.333 491.482,750.136 493.509,813.159 
  495.574,761.923 497.616,528.349 499.406,398.832 501.123,483.12 502.82,619.835 504.621,737.077 506.601,821.167 508.49,830.649 510.584,646.888 512.401,403.326 
  514.012,399.569 515.668,537.873 517.431,680.722 519.361,793.326 521.046,857.193 523.137,846.288 525.019,620.037 526.809,354.66 528.286,376.774 529.837,526.647 
  531.446,669.158 533.324,788.593 534.811,858.561 536.712,916.089 538.758,845.931 540.467,529.56 541.943,291.477 543.313,343.67 544.647,497.054 545.885,623.603 
  547.283,729.422 548.221,783.9 549.504,844.909 550.698,893.049 552.217,947.815 554.099,1006.41 555.907,999.455 557.503,736.149 559.019,261.591 560.283,180.94 
  561.615,364.472 563.397,590.247 564.679,686.074 566.098,745.675 567.526,764.438 569.179,721.478 571.097,566.01 572.708,478.079 574.235,555.205 575.747,639.966 
  577.192,687.426 578.559,729.005 580.153,776.889 581.571,808.147 583.283,810.428 585.296,706.194 587.018,507.58 588.678,469.077 590.053,588.185 591.509,664.465 
  593.042,711.088 594.471,760.721 595.786,810.529 596.984,854.608 598.172,895.115 599.531,937.512 601.025,981.215 602.709,1030.14 604.508,1068.98 606.181,963.389 
  607.674,492.562 608.863,131.193 609.993,165.525 611.031,340.684 612.365,529.841 613.587,634.995 614.893,694.485 616.248,711.699 617.803,675.542 619.68,564.514 
  621.348,513.148 622.908,569.486 624.646,641.062 626.197,684.717 627.946,724.259 629.812,739.631 631.651,690.993 633.706,549.095 635.5,507.105 637.111,587.632 
  638.827,656.981 640.567,706.199 642.352,748.895 644.067,763.464 646.012,704.91 648.003,540.913 649.761,491.712 651.315,585.939 652.968,659.927 654.687,711.729 
  656.273,758.848 657.873,795.317 659.563,799.05 661.632,696.282 663.411,503.703 665.111,482.373 666.509,596.208 667.972,666.375 669.496,713.071 670.95,763.19 
  672.174,807.384 673.412,848.797 674.732,885.768 676.236,914.902 678.187,917.339 680.019,832.329 681.76,578.121 683.279,384.868 684.503,508.751 685.694,643.888 
  686.762,685.469 688.118,712.87 689.456,752.276 690.734,796.63 692.174,837.08 693.773,834.356 695.674,670.569 697.29,433.535 698.814,375.148 700.439,494.362 
  702.02,632.915 703.667,745.239 705.383,829.313 707.142,875.779 709.199,790.858 710.934,507.859 712.586,331.04 714.059,415.514 715.569,568.281 717.021,689.924 
  718.739,795.383 720.198,863.443 722.033,921.549 724.067,868.265 725.747,568.908 727.215,294.991 728.549,316.649 729.867,468.008 731.139,605.047 732.641,722.819 
  733.794,788.942 734.969,842.865 736.232,891.432 737.631,938.679 739.379,993.674 741.22,1044.42 743.028,1003.38 744.579,639.483 745.852,205.795 747.018,150.105 
  748.166,322.523 749.53,520.35 750.78,635.262 752.105,703.293 753.45,729.46 754.983,705.636 756.796,596.418 758.486,502.359 760.049,543.701 761.612,623.103 
  763.082,672.086 764.677,715.58 766.782,758.487 768.315,756.096 770.49,648.811 772.266,502.924 774.043,521.203 775.48,610.869 777.01,669.886 778.577,716.563 
  780.467,770.874 781.917,798.227 783.799,784.113 785.842,640.737 787.559,469.258 789.033,503.247 790.382,609.889 791.708,668.389 792.995,707.551 794.508,758.816 
  795.634,799.16 796.904,841.532 798.186,877.063 799.705,904.694 801.642,898.491 803.483,787.915 805.159,524.392 806.676,400.054 808.012,563.146 809.312,666.451 
  810.756,702.046 812.09,738.11 813.456,786.614 814.848,834.535 816.419,861.591 818.278,775.902 819.953,522.931 821.524,352.509 823.028,416.486 824.485,555.515 
  826.005,682.177 827.983,801.092 829.441,864.016 831.475,898.397 833.361,753.181 835.09,417.745 836.614,308.349 838.203,448.417 839.53,588.805 840.615,681.052 
  842.014,772.047 843.282,836.712 844.752,899.22 846.428,955.76 848.49,940.77 850.069,686.054 851.529,304.819 852.797,234.951 854.129,390.221 855.435,554.269 
  856.825,678.204 858.16,756.937 859.382,805.219 860.805,836.937 862.327,833.02 864.123,734.337 865.771,524.027 867.322,439.241 868.669,564.048 870.113,659.092 
  871.497,700.729 872.909,746.852 874.277,800.374 875.523,850.729 876.976,906.76 878.528,957.277 880.361,956.195 881.993,734.618 883.556,321.174 884.878,230.944 
  886.303,397.508 887.791,579.175 889.189,694.934 890.526,767.72 891.825,813.515 893.295,837.583 894.908,813.832 896.789,661.052 898.355,462.171 899.926,483.275 
  901.173,604.63 902.486,670.157 903.89,710.939 905.362,762.312 906.608,811.93 907.927,864.782 909.357,918.856 910.969,968.327 912.817,946.629 914.402,682.1 
  915.965,275.073 917.234,236.911 918.567,404.944 920.03,582.792 921.432,696.799 922.716,764.822 924.051,809.106 925.514,826.874 927.164,787.25 929.02,612.205 
  930.562,446.792 932.082,513.326 933.336,621.628 934.64,676.403 935.985,716.293 937.602,774.531 938.772,820.661 940.09,871.757 941.473,922.528 943.057,976.072 
  944.822,1008.18 946.533,874.059 948.047,445.27 949.461,177.716 950.665,279.397 951.874,457.688 953.255,611.935 954.761,713.745 955.991,760.556 957.5,778.615 
  959.076,735.858 960.993,571.544 962.553,468.941 964.069,545.556 965.488,634.601 966.882,683.121 968.128,721.472 969.569,768.909 970.876,808.682 972.348,839.92 
  974.007,840.253 976.16,716.086 977.775,501.089 979.421,453.203 980.739,586.364 982.148,667.044 983.825,715.732 985.211,764.781 986.507,816.852 987.884,872.155 
  989.381,926.866 991.083,962.751 992.92,851.031 994.463,489.335 995.954,233.761 997.213,315.026 998.507,484.697 999.864,628.393 1001.29,730.516 1002.41,785.577 
  1003.71,830.674 1005.07,856.223 1006.65,846.893 1008.43,737.025 1010.03,515.416 1011.56,431.129 1012.87,564.871 1014.29,661.748 1015.69,702.143 1017.09,746.867 
  1018.43,799.346 1019.75,852.935 1021.24,907.085 1022.89,937.046 1024.74,814.219 1026.29,475.324 1027.78,262.577 1029.1,350.938 1030.44,513.34 1031.73,642.673 
  1033.28,750.813 1034.43,808.819 1035.63,857.274 1036.68,891.884 1037.88,925.046 1039.19,953.906 1040.7,977.903 1042.34,988.24 1044.09,962.136 1045.89,824.518 
  1047.44,522.796 1048.89,358.218 1050.16,556.563 1051.33,674.417 1052.68,697.627 1053.93,713.22 1055.33,744.655 1056.7,771.153 1058.31,762.542 1060.2,646.531 
  1061.94,488.315 1063.6,453.993 1065.39,547.489 1067.14,660.242 1069.18,755.756 1071.16,783.904 1073.29,672.117 1075.29,472.026 1077.04,444.03 1078.95,561.487 
  1080.84,687.114 1083.04,783.939 1084.99,794.686 1087.21,627.964 1089.14,430.245 1090.86,446.448 1092.62,575.687 1094.51,705.491 1096.92,809.473 1098.73,813.586 
  1100.99,613.848 1102.83,405.277 1104.51,431.027 1106.19,567.82 1108,701.851 1110.31,817.03 1112.01,850.728 1114.3,712.397 1116.07,442.894 1117.76,369.129 
  1119.48,505.093 1121.24,657.528 1122.98,769.757 1124.69,848.416 1126.58,886.695 1128.63,752.475 1130.36,437.561 1131.96,323.124 1133.54,454.058 1135.12,613.037 
  1136.5,719.461 1138.08,810.716 1139.54,877.182 1141.35,936.194 1143.43,893.174 1145.07,596.214 1146.52,287.992 1147.81,285.904 1149.1,438.307 1150.37,584.128 
  1151.82,703.869 1153.07,776.726 1154.24,828.231 1155.44,868.798 1156.8,902.026 1158.3,920.526 1159.99,900.641 1161.8,764.806 1163.36,498.223 1164.85,402.124 
  1166.11,570.065 1167.45,671.892 1168.96,705.241 1170.27,740.606 1171.65,788.466 1173.07,832.399 1174.69,844.08 1176.62,708.592 1178.27,460.488 1179.82,366.997 
  1181.49,479.008 1183.03,616.76 1184.66,732.541 1186.4,822.583 1188.11,875.597 1190.18,821.639 1191.93,556.232 1193.63,331.675 1195.06,388.259 1196.56,540.929 
  1198.04,671.878 1199.91,790.91 1201.31,857.911 1203.17,922.161 1205.2,896.491 1206.92,621.042 1208.41,308.662 1209.75,294.371 1211.09,445.62 1212.42,594.423 
  1213.83,708.883 1215.08,782.247 1216.23,835.022 1217.28,874.685 1218.5,914.347 1219.79,950.956 1221.43,992.945 1223.2,1038.31 1224.99,1084.74 1226.77,1061.38 
  1228.3,709.925 1229.55,200.35 1230.7,87.9763 1231.86,274.654 1233.28,496.828 1234.48,608.267 1235.87,672.976 1237.22,687.688 1238.83,649.795 1240.72,557.81 
  1242.43,532.593 1244.06,586.716 1245.8,645.121 1247.51,685.819 1249.45,713.223 1251.38,694.09 1253.45,594.387 1255.43,520.17 1257.18,572.13 1259.01,641.878 
  1260.72,686.863 1262.63,722.253 1264.57,717.906 1266.6,628.63 1268.61,514.848 1270.4,549.704 1272.03,625.029 1273.69,676.144 1275.43,719.253 1277.54,745.964 
  1279.28,711.905 1281.48,562.741 1283.25,498.033 1284.91,578.682 1286.62,653.102 1288.32,702.753 1290.03,747.289 1291.74,772.336 1293.57,741.884 1295.65,585.39 
  1297.38,476.455 1299.01,556.507 1300.49,640.308 1302.01,690.095 1303.37,731.895 1304.96,780.28 1306.39,812.461 1308.1,816.533 1310.14,714.004 1311.86,510.579 
  1313.52,463.84 1314.9,586.076 1316.37,664.768 1317.95,712.725 1319.38,762.712 1320.71,814.11 1321.85,857.067 1323.22,905.705 1324.64,953.079 1326.29,1005.6 
  1328.09,1038.28 1329.76,900.216 1331.26,432.207 1332.51,147.39 1333.7,232.602 1334.78,405.777 1336.14,574.734 1337.48,675.831 1338.75,727.14 1340.17,742.633 
  1341.74,699.098 1343.65,558.534 1345.25,492.345 1346.77,562.437 1348.38,642.021 1349.86,688.099 1351.39,731.443 1353.11,771.085 1354.69,779.136 1356.68,703.037 
  1358.52,530.736 1360.23,482.881 1361.7,584.215 1363.28,660.163 1364.91,710.515 1366.23,753.005 1367.72,799.378 1369.15,831.389 1370.87,835.148 1373.01,719.644 
  1374.69,504.317 1376.34,455.786 1377.69,587.429 1379.12,667.201 1380.85,718.192 1382.25,768.295 1383.56,820.969 1384.92,875.199 1386.42,930.644 1388.1,975.129 
  1389.98,903.871 1391.53,564.727 1392.89,244.925 1394.12,254.878 1395.33,413.184 1396.65,573.801 1398.04,690.791 1399.29,759.38 1400.58,805.36 1401.99,828.225 
  1403.58,804.202 1405.42,657.076 1406.98,467.263 1408.55,484.681 1409.8,602.204 1411.12,668.215 1412.48,708.498 1413.96,759.465 1415.22,808.862 1416.45,857.166 
  1417.83,909.261 1419.34,961.862 1421.07,1002.84 1422.84,913.181 1424.36,532.677 1425.66,208.745 1426.86,233.741 1428.01,397.76 1429.35,566.941 1430.7,679.562 
  1431.9,742.218 1433.27,780.68 1434.71,781.555 1436.42,702.89 1438.14,530.297 1439.73,470.982 1441.13,569.415 1442.66,653.527 1443.86,691.723 1444.94,725.621 
  1446.09,764.679 1447.29,804.58 1448.57,840.206 1450,864.561 1451.79,849.456 1453.69,710.639 1455.27,480.495 1456.83,447.62 1458.1,588.608 1459.43,668.486 
  1461.01,711.934 1462.37,757.721 1463.66,809.044 1465.06,864.53 1466.58,912.569 1468.36,904.377 1470.06,690.638 1471.66,349.428 1473.03,291.357 1474.49,441.34 
  1475.96,602.155 1477.25,706.707 1478.52,782.8 1479.72,839.624 1481.05,892.39 1482.51,943.819 1484.42,1005.11 1486.27,1031.42 1487.97,849.906 1489.49,354.714 
  1490.85,148.793 1492.1,300.749 1493.42,496.441 1494.78,631.73 1496.14,709.413 1497.49,744.68 1499.02,734.162 1500.77,637.644 1502.51,504.529 1504.12,517.862 
  1505.57,604.497 1507.04,662.724 1508.59,708.31 1510.26,755.088 1511.8,784.336 1513.55,774.597 1515.58,649.481 1517.3,484.442 1518.99,512.447 1520.36,612.02 
  1521.8,671.515 1523.22,714.88 1524.8,767.78 1526.08,808.732 1527.57,845.692 1529.16,858.901 1531.35,776.204 1533.06,560.976 1534.7,423.173 1536.12,554.699 
  1537.46,654.964 1538.78,695.368 1540.19,738.511 1541.61,792.953 1542.89,844.902 1544.38,900.801 1545.99,936.613 1547.89,840.236 1549.44,519.508 1550.97,266.805 
  1552.26,331.161 1553.6,493.466 1554.89,627.534 1556.36,735.512 1557.46,794.689 1558.62,844.549 1559.67,881.18 1560.74,912.945 1561.97,943.09 1563.34,969.333 
  1564.91,988.309 1566.58,987.856 1568.36,931.285 1570.04,731.112 1571.53,411.704 1572.76,387.85 1573.88,582.09 1575.01,679.743 1576.38,698.752 1577.56,714.037 
  1578.94,744.681 1580.29,769.412 1581.89,758.79 1583.75,643.676 1585.47,490.224 1587.14,456.646 1588.92,547.976 1590.67,659.22 1592.71,753.739 1594.69,780.518 
  1596.82,668.127 1598.84,472.425 1600.59,448.185 1602.49,564.601 1604.4,688.911 1606.63,783.695 1608.59,787.776 1610.81,612.179 1612.74,428.254 1614.47,456.969 
  1616.22,585.804 1618.12,711.987 1620.65,811.986 1622.46,798.465 1624.73,572.333 1626.54,398.738 1628.24,455.276 1629.92,592.605 1631.72,718.412 1633.89,818.954 
  1635.67,842.742 1637.87,680.932 1639.66,421.407 1641.32,383.506 1643.04,524.2 1644.84,674.188 1646.68,785.57 1648.38,856.05 1650.4,868.125 1652.35,671.411 
  1654.12,373.064 1655.64,352.76 1657.22,502.82 1658.9,657.891 1660.54,767.729 1662.09,845.908 1663.8,910.326 1665.85,912.995 1667.63,683.437 1669.32,321.84 
  1670.72,294.711 1672.18,458.113 1673.71,621.617 1675.17,731.288 1676.42,799.997 1677.53,848.345 1678.8,894.872 1680.13,936.746 1681.78,984.467 1683.64,1037.8 
  1685.47,1073.72 1687.17,936.86 1688.67,420.803 1689.85,108.126 1691,190.389 1692.03,367.383 1693.37,547.305 1694.62,645.472 1695.92,696.484 1697.31,705.223 
  1698.91,656.1 1700.82,544.302 1702.46,522.116 1704.04,587.319 1705.69,648.661 1707.35,692.592 1709.15,728.004 1710.96,729.792 1712.93,652.919 1714.89,522.129 
  1716.69,529.759 1718.26,609.583 1719.87,666.35 1721.59,712.71 1723.65,753.149 1725.29,747.768 1727.46,634.55 1729.28,497.982 1731.05,534.001 1732.51,619.526 
  1734.07,675.043 1735.63,720.81 1737.62,773.335 1739.08,791.415 1741.12,743.652 1743.05,570.116 1744.77,464.512 1746.32,561.554 1747.81,648.434 1749.05,688.855 
  1750.16,723.242 1751.39,764.911 1752.58,804.673 1753.88,841.515 1755.31,866.354 1757.13,852.374 1759.03,714.258 1760.62,480.976 1762.19,446.153 1763.46,588.833 
  1764.79,668.992 1766.42,713.382 1767.77,759.14 1769.08,811.371 1770.49,866.641 1772.03,912.694 1773.84,889.457 1775.52,652.518 1777.12,328.018 1778.48,305.116 
  1779.89,455.816 1781.33,609.537 1782.64,713.809 1783.83,784.643 1785.11,845.4 1786.44,898.458 1788.01,954.202 1790.05,1014.37 1791.86,978.524 1793.47,635.519 
  1794.79,232 1796,187.104 1797.19,355.076 1798.57,542.245 1799.87,657.843 1801.16,725.741 1802.51,760.131 1804,751.237 1805.75,654.598 1807.45,505.759 
  1809.06,502.721 1810.46,595.164 1811.91,659.514 1813.42,705.342 1814.87,750.033 1816.37,791.159 1817.89,813.491 1819.72,782.43 1821.7,612.782 1823.32,454.019 
  1824.91,525.705 1826.2,626.835 1827.57,679.911 1828.9,720.386 1830.35,772.31 1831.48,814.748 1832.65,856.979 1833.69,891.72 1834.96,930.443 1836.31,967.869 
  1837.89,1010.15 1839.58,1056.51 1841.38,1083.02 1842.95,918.748 1844.42,377.702 1845.6,88.5135 1846.75,198.715 1847.8,383.651 1849.13,554.991 1850.42,648.474 
  1851.72,691.368 1853.16,690.625 1854.81,629.881 1856.7,533.929 1858.32,538.097 1859.97,604.729 1861.56,656.015 1863.31,697.688 1865.29,723.688 1867.11,698.876 
  1869.23,583.547 1871.11,512.764 1872.83,573.477 1874.61,645.168 1876.3,691.519 1878.14,730.346 1880,736.592 1881.97,663.469 1883.98,522.702 1885.8,524.602 
  1887.36,607.885 1888.98,666.448 1890.7,713.994 1892.7,757.562 1894.33,759.955 1896.46,663.674 1898.31,507.425 1900.1,515.322 1901.56,608.114 1903.1,668.867 
  1904.7,716.571 1906.53,770.108 1907.99,800.019 1909.83,792.954 1911.89,661.695 1913.62,477.383 1915.11,490.121 1916.45,600.308 1917.79,664.526 1919.12,705.291 
  1920.54,752.797 1921.75,796.883 1922.84,835.09 1924.11,874.189 1925.43,906.334 1927.09,929.298 1928.96,911.246 1930.79,777.194 1932.4,496.224 1933.9,398.703 
  1935.18,575.364 1936.52,674.859 1937.99,705.053 1939.32,739.369 1940.7,785.437 1942.13,826.213 1943.77,827.816 1945.72,672.774 1947.37,442.181 1948.93,385.335 
  1950.6,503.854 1952.22,640.736 1953.93,752.75 1955.68,832.255 1957.53,862.995 1959.56,726.09 1961.32,439.214 1962.91,350.436 1964.59,483.064 1966.23,634.608 
  1967.83,747.355 1969.5,833.596 1971.19,894.099 1973.26,873.623 1975.03,622.309 1976.75,318.52 1978.14,337.439 1979.6,495.598 1981.07,640.886 1982.48,742.669 
  1983.82,816.023 1985.25,879.64 1986.84,940.124 1988.93,986.054 1990.7,861.832 1992.31,439.184 1993.78,203.54 1995.05,317.211 1996.33,494.816 1997.73,638.537 
  1999.24,736.118 2000.46,784.179 2001.96,811.521 2003.51,789.625 2005.41,643.75 2006.98,469.467 2008.57,497.883 2009.85,607.19 2011.2,669.344 2012.51,708.887 
  2014.06,762.617 2015.27,808.081 2016.48,852.585 2017.56,888.998 2018.87,929.51 2020.25,968.68 2021.87,1013.18 2023.59,1060.77 2025.39,1068.2 2026.94,825.857 
  2028.41,261.531 2029.66,100.394 2030.95,295.999 2032.41,515.287 2033.69,627.861 2035.09,688.666 2036.51,700.035 2038.16,651.993 2040.11,544.184 2041.79,527.777 
  2043.4,592.751 2045.06,651.066 2046.78,694.438 2048.67,726.009 2050.5,715.507 2052.55,617.172 2054.48,511.86 2056.23,552.491 2057.86,627.424 2059.49,677.536 
  2061.21,720.295 2063.27,747.522 2065,716.368 2067.18,569.922 2068.95,495.516 2070.61,573.161 2072.28,648.928 2073.93,698.069 2075.57,742.531 2077.3,773.142 
  2079.04,757.693 2081.14,620.638 2082.88,480.605 2084.57,534.851 2085.97,624.701 2087.46,678.742 2088.87,721.784 2090.55,774.607 2091.93,810.167 2093.61,826.819 
  2095.52,767.766 2097.39,568.328 2099.01,441.002 2100.5,551.352 2101.86,646.782 2103.22,691.972 2104.6,735.44 2106.06,790.364 2107.21,835.836 2108.56,886.963 
  2109.97,937.293 2111.6,990.383 2113.4,1009.27 2115.05,824.768 2116.56,360.616 2117.91,172.116 2119.2,319.567 2120.47,501.79 2121.86,639.799 2123.25,722.705 
  2124.56,763.497 2126.07,766.918 2127.75,693.724 2129.56,527.461 2131.15,482.397 2132.59,576.94 2134.13,654.493 2135.65,701.472 2136.93,742.04 2138.44,788.356 
  2139.84,820.6 2141.52,826.949 2143.56,730.309 2145.27,523.502 2146.91,450.99 2148.3,576.185 2149.8,663.382 2151.44,712.928 2152.84,761.96 2154.21,815.633 
  2155.45,864.378 2156.91,918.534 2158.47,971.562 2160.27,1004.58 2161.99,868.403 2163.52,438.512 2164.94,181.554 2166.16,288.236 2167.38,466.269 2168.76,617.941 
  2170.28,718.654 2171.5,765.036 2173.02,783.541 2174.6,741.516 2176.51,575.213 2178.07,466.117 2179.59,542.387 2180.98,633.032 2182.36,682.102 2183.57,719.234 
  2184.9,763.506 2186.17,804.862 2187.55,840.658 2189.08,858.861 2191.08,809.105 2192.86,620.798 2194.46,427.119 2195.79,494.721 2197.04,619.929 2198.22,674.655 
  2199.57,711.69 2201,760.757 2202.15,806.871 2203.54,862.855 2204.96,913.125 2206.65,937.031 2208.42,798.918 2209.97,449.803 2211.41,260.323 2212.77,361.559 
  2214.09,522.517 2215.4,650.317 2216.89,752.796 2218.05,810.591 2219.24,857.574 2220.31,892.319 2221.62,926.323 2223.01,953.023 2224.63,968.326 2226.34,949.923 
  2228.15,827.923 2229.72,545.733 2231.19,363.256 2232.49,543.947 2233.64,665.592 2234.89,695.519 2236.19,714.342 2237.6,749.872 2238.93,783.043 2240.51,790.768 
  2242.33,698.685 2244.11,508.155 2245.71,426.057 2247.56,512.084 2249.15,627.296 2251.05,738.271 2253.04,804.574 2255.02,772.622 2257.07,562.664 2258.87,408.829 
  2260.56,466.209 2262.23,597.21 2264.04,718.956 2266.24,814.263 2268.05,823.599 2270.24,638.706 2272.05,409.008 2273.7,411.147 2275.37,547.578 2277.16,687.563 
  2279.19,799.793 2280.9,855.191 2283.08,802.82 2284.91,544.339 2286.67,350.292 2288.16,419.767 2289.74,570.522 2290.96,672.715 
  "/>
<path clip-path="url(#clip270)" d="
M1967.62 276.658 L2279.98 276.658 L2279.98 95.2176 L1967.62 95.2176  Z
  " fill="#282828" fill-rule="evenodd" fill-opacity="1"/>
<polyline clip-path="url(#clip270)" style="stroke:#ebdbb2; stroke-width:4; stroke-opacity:1; fill:none" points="
  1967.62,276.658 2279.98,276.658 2279.98,95.2176 1967.62,95.2176 1967.62,276.658 
  "/>
<polyline clip-path="url(#clip270)" style="stroke:#83a598; stroke-width:4; stroke-opacity:1; fill:none" points="
  1991.88,155.698 2137.44,155.698 
  "/>
<path clip-path="url(#clip270)" d="M 0 0 M2175.1 159.945 Q2169.93 159.945 2167.94 161.126 Q2165.95 162.306 2165.95 165.154 Q2165.95 167.422 2167.43 168.765 Q2168.94 170.084 2171.51 170.084 Q2175.05 170.084 2177.18 167.584 Q2179.33 165.061 2179.33 160.894 L2179.33 159.945 L2175.1 159.945 M2183.59 158.186 L2183.59 172.978 L2179.33 172.978 L2179.33 169.042 Q2177.87 171.403 2175.7 172.538 Q2173.52 173.649 2170.37 173.649 Q2166.39 173.649 2164.03 171.427 Q2161.69 169.181 2161.69 165.431 Q2161.69 161.056 2164.61 158.834 Q2167.55 156.612 2173.36 156.612 L2179.33 156.612 L2179.33 156.195 Q2179.33 153.255 2177.39 151.658 Q2175.47 150.038 2171.97 150.038 Q2169.75 150.038 2167.64 150.57 Q2165.54 151.103 2163.59 152.167 L2163.59 148.232 Q2165.93 147.33 2168.13 146.89 Q2170.33 146.427 2172.41 146.427 Q2178.04 146.427 2180.81 149.343 Q2183.59 152.26 2183.59 158.186 Z" fill="#ebdbb2" fill-rule="evenodd" fill-opacity="1" /><path clip-path="url(#clip270)" d="M 0 0 M2198.29 137.006 Q2195.19 142.33 2193.68 147.538 Q2192.18 152.746 2192.18 158.093 Q2192.18 163.441 2193.68 168.695 Q2195.21 173.927 2198.29 179.228 L2194.59 179.228 Q2191.12 173.788 2189.38 168.533 Q2187.67 163.279 2187.67 158.093 Q2187.67 152.931 2189.38 147.7 Q2191.09 142.468 2194.59 137.006 L2198.29 137.006 Z" fill="#ebdbb2" fill-rule="evenodd" fill-opacity="1" /><path clip-path="url(#clip270)" d="M 0 0 M2206.97 139.691 L2206.97 147.052 L2215.74 147.052 L2215.74 150.362 L2206.97 150.362 L2206.97 164.436 Q2206.97 167.607 2207.83 168.51 Q2208.71 169.413 2211.37 169.413 L2215.74 169.413 L2215.74 172.978 L2211.37 172.978 Q2206.44 172.978 2204.56 171.149 Q2202.69 169.297 2202.69 164.436 L2202.69 150.362 L2199.56 150.362 L2199.56 147.052 L2202.69 147.052 L2202.69 139.691 L2206.97 139.691 Z" fill="#ebdbb2" fill-rule="evenodd" fill-opacity="1" /><path clip-path="url(#clip270)" d="M 0 0 M2219.54 137.006 L2223.24 137.006 Q2226.72 142.468 2228.43 147.7 Q2230.17 152.931 2230.17 158.093 Q2230.17 163.279 2228.43 168.533 Q2226.72 173.788 2223.24 179.228 L2219.54 179.228 Q2222.62 173.927 2224.12 168.695 Q2225.65 163.441 2225.65 158.093 Q2225.65 152.746 2224.12 147.538 Q2222.62 142.33 2219.54 137.006 Z" fill="#ebdbb2" fill-rule="evenodd" fill-opacity="1" /><polyline clip-path="url(#clip270)" style="stroke:#fb4934; stroke-width:4; stroke-opacity:1; fill:none" points="
  1991.88,216.178 2137.44,216.178 
  "/>
<path clip-path="url(#clip270)" d="M 0 0 M2180.47 220.518 Q2180.47 215.819 2178.52 213.157 Q2176.6 210.472 2173.22 210.472 Q2169.84 210.472 2167.9 213.157 Q2165.98 215.819 2165.98 220.518 Q2165.98 225.217 2167.9 227.902 Q2169.84 230.564 2173.22 230.564 Q2176.6 230.564 2178.52 227.902 Q2180.47 225.217 2180.47 220.518 M2165.98 211.467 Q2167.32 209.152 2169.36 208.041 Q2171.42 206.907 2174.26 206.907 Q2178.99 206.907 2181.93 210.657 Q2184.89 214.407 2184.89 220.518 Q2184.89 226.629 2181.93 230.379 Q2178.99 234.129 2174.26 234.129 Q2171.42 234.129 2169.36 233.018 Q2167.32 231.883 2165.98 229.569 L2165.98 233.458 L2161.69 233.458 L2161.69 197.439 L2165.98 197.439 L2165.98 211.467 Z" fill="#ebdbb2" fill-rule="evenodd" fill-opacity="1" /><path clip-path="url(#clip270)" d="M 0 0 M2199.59 197.486 Q2196.49 202.81 2194.98 208.018 Q2193.48 213.226 2193.48 218.573 Q2193.48 223.921 2194.98 229.175 Q2196.51 234.407 2199.59 239.708 L2195.88 239.708 Q2192.41 234.268 2190.68 229.013 Q2188.96 223.759 2188.96 218.573 Q2188.96 213.411 2190.68 208.18 Q2192.39 202.948 2195.88 197.486 L2199.59 197.486 Z" fill="#ebdbb2" fill-rule="evenodd" fill-opacity="1" /><path clip-path="url(#clip270)" d="M 0 0 M2208.27 200.171 L2208.27 207.532 L2217.04 207.532 L2217.04 210.842 L2208.27 210.842 L2208.27 224.916 Q2208.27 228.087 2209.12 228.99 Q2210 229.893 2212.67 229.893 L2217.04 229.893 L2217.04 233.458 L2212.67 233.458 Q2207.74 233.458 2205.86 231.629 Q2203.99 229.777 2203.99 224.916 L2203.99 210.842 L2200.86 210.842 L2200.86 207.532 L2203.99 207.532 L2203.99 200.171 L2208.27 200.171 Z" fill="#ebdbb2" fill-rule="evenodd" fill-opacity="1" /><path clip-path="url(#clip270)" d="M 0 0 M2220.84 197.486 L2224.54 197.486 Q2228.01 202.948 2229.73 208.18 Q2231.46 213.411 2231.46 218.573 Q2231.46 223.759 2229.73 229.013 Q2228.01 234.268 2224.54 239.708 L2220.84 239.708 Q2223.92 234.407 2225.42 229.175 Q2226.95 223.921 2226.95 218.573 Q2226.95 213.226 2225.42 208.018 Q2223.92 202.81 2220.84 197.486 Z" fill="#ebdbb2" fill-rule="evenodd" fill-opacity="1" /></svg>
